<svg id="Ñëîé_1" data-name="Ñëîé 1" xmlns="http://www.w3.org/2000/svg" xmlns:xlink="http://www.w3.org/1999/xlink" viewBox="0 0 921.51 374.74"><defs><style>.cls-1{fill:url(#Áåçûìÿííûé_ãðàäèåíò_6642);}.cls-2{fill:url(#Áåçûìÿííûé_ãðàäèåíò_6642-2);}.cls-3{fill:url(#Áåçûìÿííûé_ãðàäèåíò_6642-3);}.cls-4{fill:url(#Áåçûìÿííûé_ãðàäèåíò_6642-4);}.cls-5{fill:url(#Áåçûìÿííûé_ãðàäèåíò_6642-5);}.cls-6{fill:url(#Áåçûìÿííûé_ãðàäèåíò_6642-6);}.cls-7{fill:url(#Áåçûìÿííûé_ãðàäèåíò_6642-7);}.cls-8{fill:url(#Áåçûìÿííûé_ãðàäèåíò_8968);}.cls-9{fill:#2ae2ee;}.cls-10{fill:#3f4d8f;}.cls-11{fill:#f46ba5;}.cls-12{fill:#253375;}.cls-13{fill:#da518b;}.cls-14{fill:#fae3cd;}.cls-15{fill:#e9cdbc;}.cls-16,.cls-17{fill:#fff;}.cls-17{stroke:#a8857b;stroke-linecap:round;stroke-linejoin:round;stroke-width:0.75px;}.cls-18{fill:#515151;}.cls-19{opacity:0.2;}.cls-20{fill:url(#Áåçûìÿííûé_ãðàäèåíò_8942);}.cls-21{fill:url(#Áåçûìÿííûé_ãðàäèåíò_8942-2);}.cls-22{fill:url(#Áåçûìÿííûé_ãðàäèåíò_8943);}.cls-23{fill:url(#Áåçûìÿííûé_ãðàäèåíò_8942-3);}.cls-24{fill:url(#Áåçûìÿííûé_ãðàäèåíò_8941);}.cls-25{fill:#00becf;}.cls-26{fill:#2b09cd;}.cls-27{fill:#4e2cf0;}.cls-28{fill:#00e1f2;}.cls-29{fill:#00004e;}.cls-30{fill:#051871;}.cls-31{fill:#ffe3c5;}.cls-32{fill:#1e1e1e;}.cls-33{fill:#4b8dff;}.cls-34{fill:#e0c2b3;}.cls-35{fill:#e0c9b3;}.cls-36{fill:#c03771;}.cls-37{fill:#5277ec;}.cls-38{fill:#5b42d3;}.cls-39{fill:#4128b9;}.cls-40{fill:#cfb3a2;}.cls-41{fill:#373737;}.cls-42{fill:#456adf;}.cls-43{fill:#d3bca6;}.cls-44{fill:#182668;}.cls-45{fill:#cd447e;}.cls-46{fill:#000c4e;}.cls-47{fill:#b32a64;}.cls-48{fill:#341bac;}.cls-49{fill:#4e35c6;}.cls-50{fill:#c2a695;}.cls-51{fill:#2a2a2a;}.cls-52{fill:#00aeba;}.cls-53{fill:#10c8d4;}.cls-54{fill:#0b195b;}.cls-55{fill:#03bbc7;}.cls-56{fill:#1dd5e1;}.cls-57{fill:#5277e5;}.cls-58{fill:#c6a899;}.cls-59{fill:#e5e5e5;}</style><linearGradient id="Áåçûìÿííûé_ãðàäèåíò_6642" x1="-6519.29" y1="-4.77" x2="-6572.53" y2="202.59" gradientTransform="matrix(1, 0, 0, -1, 6890.5, 207.71)" gradientUnits="userSpaceOnUse"><stop offset="0" stop-color="#ff9bd8"/><stop offset="0.89" stop-color="#fb8fd8"/></linearGradient><linearGradient id="Áåçûìÿííûé_ãðàäèåíò_6642-2" x1="-6532.56" y1="-3.7" x2="-6582.62" y2="191.31" gradientTransform="matrix(1, 0, 0, -1, 6906.76, 169.86)" xlink:href="#Áåçûìÿííûé_ãðàäèåíò_6642"/><linearGradient id="Áåçûìÿííûé_ãðàäèåíò_6642-3" x1="-6519.67" y1="-1.17" x2="-6569.74" y2="193.84" gradientTransform="matrix(1, 0, 0, -1, 6875.67, 154.21)" xlink:href="#Áåçûìÿííûé_ãðàäèåíò_6642"/><linearGradient id="Áåçûìÿííûé_ãðàäèåíò_6642-4" x1="-6516.88" y1="-2.45" x2="-6567.69" y2="195.44" gradientTransform="matrix(1, 0, 0, -1, 6866.83, 138.93)" xlink:href="#Áåçûìÿííûé_ãðàäèåíò_6642"/><linearGradient id="Áåçûìÿííûé_ãðàäèåíò_6642-5" x1="-6508.44" y1="-0.84" x2="-6560.58" y2="202.22" gradientTransform="matrix(1, 0, 0, -1, 6857.07, 169.86)" xlink:href="#Áåçûìÿííûé_ãðàäèåíò_6642"/><linearGradient id="Áåçûìÿííûé_ãðàäèåíò_6642-6" x1="-6522.91" y1="-3.97" x2="-6572.98" y2="191.04" gradientTransform="matrix(-1, 0, 0, 1, -6296.24, -24.68)" xlink:href="#Áåçûìÿííûé_ãðàäèåíò_6642"/><linearGradient id="Áåçûìÿííûé_ãðàäèåíò_6642-7" x1="-6515.38" y1="-5.34" x2="-6567.51" y2="197.72" gradientTransform="matrix(-1, 0, 0, 1, -6296.24, -24.68)" xlink:href="#Áåçûìÿííûé_ãðàäèåíò_6642"/><linearGradient id="Áåçûìÿííûé_ãðàäèåíò_8968" x1="3199.39" y1="24.68" x2="3205.12" y2="24.68" gradientTransform="matrix(-1, 0, 0, 1, 3428.07, -24.68)" gradientUnits="userSpaceOnUse"><stop offset="0" stop-color="#92ebeb"/><stop offset="1" stop-color="#eba6eb"/></linearGradient><linearGradient id="Áåçûìÿííûé_ãðàäèåíò_8942" x1="-775.57" y1="5762.78" x2="-441.77" y2="5954.61" gradientTransform="matrix(-0.36, 0.93, -0.93, -0.36, 5435.12, 2898.56)" gradientUnits="userSpaceOnUse"><stop offset="0.26" stop-color="#b88eff"/><stop offset="0.85" stop-color="#0f3eb6"/></linearGradient><linearGradient id="Áåçûìÿííûé_ãðàäèåíò_8942-2" x1="-743.57" y1="5801.85" x2="-650.66" y2="5801.85" xlink:href="#Áåçûìÿííûé_ãðàäèåíò_8942"/><linearGradient id="Áåçûìÿííûé_ãðàäèåíò_8943" x1="-768.53" y1="5837.86" x2="-686.16" y2="5780.42" gradientTransform="matrix(-0.36, 0.93, -0.93, -0.36, 5435.12, 2898.56)" gradientUnits="userSpaceOnUse"><stop offset="0" stop-color="#5c08e7"/><stop offset="1" stop-color="#08ffff"/></linearGradient><linearGradient id="Áåçûìÿííûé_ãðàäèåíò_8942-3" x1="-800.55" y1="5806.11" x2="-695.55" y2="5806.11" xlink:href="#Áåçûìÿííûé_ãðàäèåíò_8942"/><linearGradient id="Áåçûìÿííûé_ãðàäèåíò_8941" x1="465.82" y1="4728.77" x2="538.58" y2="4678.03" gradientTransform="matrix(-0.51, 0.86, -0.86, -0.51, 4586.64, 2081.22)" gradientUnits="userSpaceOnUse"><stop offset="0" stop-color="#13ffff"/><stop offset="1" stop-color="#7f19ff"/></linearGradient></defs><rect class="cls-1" x="320.28" y="94.3" width="46.09" height="19.12" rx="4.63" transform="translate(594.26 183.04) rotate(180)"/><rect class="cls-2" x="336.54" y="83.4" width="29.83" height="3.06" rx="1.4" transform="translate(610.52 145.18) rotate(180)"/><rect class="cls-3" x="321" y="75.58" width="29.83" height="3.06" rx="1.4" transform="translate(579.43 129.53) rotate(180)"/><rect class="cls-4" x="321.32" y="67.93" width="20.33" height="3.06" rx="1.4" transform="translate(570.59 114.25) rotate(180)"/><rect class="cls-5" x="320.83" y="83.4" width="11.55" height="3.06" rx="1.4" transform="translate(560.83 145.18) rotate(180)"/><rect class="cls-6" x="228.45" y="34.84" width="29.83" height="3.06" rx="1.4"/><rect class="cls-7" x="228.45" y="27.21" width="11.55" height="3.06" rx="1.4"/><line class="cls-8" x1="228.68" x2="222.95"/><path class="cls-9" d="M215.32,399.42c.53-1.35,1.05-2.71,1.6-4.05q0-8.87.19-17.74c.09-3.82.21-7.65.36-11.46-8.08,7-15.13,13.54-18,24.84a66.38,66.38,0,0,0-1.49,8.41Z" transform="translate(-92.39 -24.68)"/><path class="cls-10" d="M240.17,319.75a10.84,10.84,0,0,1-4-3.11c-1.15-1.69-1.24-3.86-1.53-5.89C234,306,231,302,228.06,298.24a112.5,112.5,0,0,1,.91,30.88,38.4,38.4,0,0,1,5.78-2.78c3.35-1.27,6.56-2.83,9.86-4.18Zm16.89-1.45a17.67,17.67,0,0,1,3.92-.48,3.48,3.48,0,0,1,1.25.24c2.27.89,2.78,4.13,3.67,6.23.55,1.29,1.14,2.56,1.77,3.82s1.22,2.34,1.87,3.48C267,333,264.42,334.41,262,336c-1.42.89-2.82,1.81-4.22,2.73-3.75,2.47-7,5.1-11.16,6.8-1.1.45-2.22.87-3.35,1.25a43.13,43.13,0,0,1-9.3,2.14c-.55.07-1.11.11-1.66.15a30.71,30.71,0,0,1-4.07,0,27.38,27.38,0,0,1-9.63-2.42,21.32,21.32,0,0,1-6-4.13,25.52,25.52,0,0,1-6.75-13.15,50.2,50.2,0,0,1-.4-14.94,96.21,96.21,0,0,1,7.45-28.61c1.78-4.11,3.92-8.19,7.23-11.22,4.42-4.06,10.34-5.75,16.36-6.8.08.08.16.17.25.25a30.88,30.88,0,0,0,38.76,5q-13.11,22.83-24,46.83C253.14,319.32,255.13,318.71,257.06,318.3Z" transform="translate(-92.39 -24.68)"/><path class="cls-11" d="M262.08,399.42c.1-.17.18-.34.27-.5l-.13-1.66a149.76,149.76,0,0,0-15.3,2.16Z" transform="translate(-92.39 -24.68)"/><path class="cls-12" d="M238.29,399.42c4.27-2.18,8.56-4.32,13-6.07,1.63-.65,3.3-1.24,5-1.76a21.65,21.65,0,0,0-11.69.91c-2.39.9-4.75,2.24-7.29,2.11-3.16-.16-5.8-2.63-7.12-5.49-2.69-5.88-1.75-13.67-1.92-20l-.06-2.59a144.79,144.79,0,0,1-11.1,11.06q-.21,8.87-.19,17.74v1.51c0,.83.06,1.69.14,2.54Z" transform="translate(-92.39 -24.68)"/><path class="cls-9" d="M217.47,366.17c-.15,3.81-.27,7.64-.36,11.46a146.62,146.62,0,0,0,11.1-11.06c-.07-3.49-.11-7-.1-10.48a81.53,81.53,0,0,1-6.46,6.42C220.24,363.76,218.84,365,217.47,366.17Z" transform="translate(-92.39 -24.68)"/><path class="cls-12" d="M218.56,346.6q-.69,9.78-1.09,19.57c1.37-1.2,2.77-2.41,4.18-3.66a81.53,81.53,0,0,0,6.46-6.42c0-2.36,0-4.71.08-7.07A27.38,27.38,0,0,1,218.56,346.6Z" transform="translate(-92.39 -24.68)"/><path class="cls-9" d="M240,351.65c1.1-1.61,2.18-3.24,3.22-4.9a43.13,43.13,0,0,1-9.3,2.14,77.47,77.47,0,0,1-5.81,7.2c0,3.49,0,7,.1,10.48A146,146,0,0,0,240,351.65Z" transform="translate(-92.39 -24.68)"/><path class="cls-12" d="M228.19,349c0,2.36-.07,4.71-.08,7.07a77.47,77.47,0,0,0,5.81-7.2c-.55.07-1.11.11-1.66.15A30.71,30.71,0,0,1,228.19,349Z" transform="translate(-92.39 -24.68)"/><path class="cls-10" d="M293,390a9.41,9.41,0,0,0,4.16-3.09c1.87-2.53,2.15-5.9,1.89-9-.57-6.9-3.36-13.41-5.07-20.13s-2.23-16.77-1.7-25.39a34.18,34.18,0,0,1-2.06-3.31l0-.38c-6.22.56-12.15,2.94-17.8,6-3,1.58-5.83,3.34-8.64,5.1-7.53,4.74-15.28,9.78-23.79,12a146,146,0,0,1-11.79,14.92l.06,2.59c.17,6.29-.77,14.08,1.92,20,1.32,2.86,4,5.33,7.12,5.49,2.54.13,4.9-1.21,7.29-2.11a21.65,21.65,0,0,1,11.69-.91,46.47,46.47,0,0,1,19.48-2.2c3.76.47,7.46,1.54,11.26,1.61A15.3,15.3,0,0,0,293,390Z" transform="translate(-92.39 -24.68)"/><path class="cls-12" d="M228.06,298.24a112.5,112.5,0,0,1,.91,30.88,38.4,38.4,0,0,1,5.78-2.78c3.35-1.27,6.56-2.83,9.86-4.18l-4.44-2.41a10.84,10.84,0,0,1-4-3.11c-1.15-1.69-1.24-3.86-1.53-5.89C234,306,231,302,228.06,298.24Z" transform="translate(-92.39 -24.68)"/><path class="cls-9" d="M283,219a10.73,10.73,0,0,0,3.58-1.2,7.66,7.66,0,0,0,3.63-6.33,7,7,0,0,0-3.59-6.28,18.56,18.56,0,0,1-3-1.52c-1.42-1.12-1.89-3-2.8-4.58a8.9,8.9,0,0,0-9.5-4c-2.58.63-5.05,2.45-7.63,1.82-1.68-.4-2.93-1.77-4.41-2.68a8.64,8.64,0,0,0-12.56,4.15,10.9,10.9,0,0,1-1.51,3.32c-1.62,1.81-4.48,1.33-6.91,1.51a8.42,8.42,0,0,0-5.67,2.59,5.89,5.89,0,0,0-1.23,5.94c.65,1.61,2.06,2.75,3.23,4s2.17,3,1.69,4.67-2.31,2.64-3.55,3.94a7,7,0,0,0,.22,9.46c2.59,2.49,6.12,3.11,7,7,.45,2.07.3,4.25.91,6.27a11.91,11.91,0,0,0,5.26,6.4,24.82,24.82,0,0,0,4.31,2.08c-.12-1.75-.27-3.45-.45-5.08-.62-5.65-1.52-10.37-2-12.58-2.47-.55-7.88-2.14-7.58-5.28.39-4.09,3.41-4.75,6.12-2.5a15,15,0,0,1,3.4,3.53s2.64,1.49,2.51-12.36C252.37,208.86,271.46,220.8,283,219Z" transform="translate(-92.39 -24.68)"/><path class="cls-12" d="M268.22,263.45c-3.27,1.18-6.52,2.87-9.92,2.51-2.72-.28-5.13-1.87-7.64-3a11.73,11.73,0,0,0-4.07-1.13A10.22,10.22,0,0,0,239,265a16.82,16.82,0,0,0-2.16,2.67l-.21.34a30.88,30.88,0,0,0,38.76,5q2.16-3.78,4.38-7.51a9.71,9.71,0,0,0-5-2.92A12.25,12.25,0,0,0,268.22,263.45Z" transform="translate(-92.39 -24.68)"/><path class="cls-13" d="M246.92,399.42a149.76,149.76,0,0,1,15.3-2.16,81.25,81.25,0,0,1,10.81-.2,57.58,57.58,0,0,1,13.71,2.36h6.94c-.28-4-.5-7.29-.65-9.45a15.3,15.3,0,0,1-6,1c-3.8-.07-7.5-1.14-11.26-1.61a46.47,46.47,0,0,0-19.48,2.2c-1.68.52-3.35,1.11-5,1.76-4.46,1.75-8.75,3.89-13,6.07Z" transform="translate(-92.39 -24.68)"/><path class="cls-14" d="M268.46,227.52a5.2,5.2,0,1,0,0,.44C268.48,227.81,268.47,227.67,268.46,227.52Zm11.17,4.15a5.14,5.14,0,0,0,4.15-2.87c.25,8.32-.61,17.8-5,22.77a10.42,10.42,0,0,1-8,3.83,13.44,13.44,0,0,1-3.34-.45c-5.8-1.49-10.66-6.29-10.66-6.29l-7.52-10.51s-.48-.07-1.21-.24c-2.47-.55-7.88-2.14-7.58-5.28.39-4.09,3.41-4.75,6.12-2.5a15,15,0,0,1,3.4,3.53s2.64,1.49,2.51-12.36c-.12-12.44,19-.5,30.53-2.34.17,1.42.35,3,.49,4.79A5.17,5.17,0,0,0,274,227a3.39,3.39,0,0,0,.1.57A5.16,5.16,0,0,0,279.63,231.67ZM273.15,247c1.82-.72,4.14-2.76,4-4.85-5.38,1.09-10.08,1.87-15.35-.48a10.86,10.86,0,0,0,4.68,4.91A8.23,8.23,0,0,0,273.15,247Z" transform="translate(-92.39 -24.68)"/><path class="cls-12" d="M243.22,346.75c-1,1.66-2.12,3.29-3.22,4.9,8.51-2.18,16.26-7.22,23.79-12,2.81-1.76,5.68-3.52,8.64-5.1l-1.09-.08c-.63-1-1.22-1.94-1.8-2.92C267,333,264.42,334.41,262,336c-1.42.89-2.82,1.81-4.22,2.73-3.75,2.47-7,5.1-11.16,6.8C245.47,346,244.35,346.37,243.22,346.75Z" transform="translate(-92.39 -24.68)"/><path class="cls-15" d="M249.25,238.15s-.48-.07-1.21-.24c.47,2.21,1.37,6.93,2,12.58A24.36,24.36,0,0,0,267.61,257l-.18-2c-5.8-1.49-10.66-6.29-10.66-6.29Z" transform="translate(-92.39 -24.68)"/><path class="cls-14" d="M250.48,255.57c.15,2.42.23,4.93.18,7.4,2.51,1.12,4.92,2.71,7.64,3,3.4.36,6.65-1.33,9.92-2.51l-.61-6.5A24.36,24.36,0,0,1,250,250.49C250.21,252.12,250.36,253.82,250.48,255.57Z" transform="translate(-92.39 -24.68)"/><path class="cls-9" d="M251.4,319.84c1.74-.52,3.73-1.13,5.66-1.54A448,448,0,0,1,283,269.66c-.39-.6-.8-1.21-1.22-1.79a31.49,31.49,0,0,1-6.37,5.14Q262.31,295.84,251.4,319.84Z" transform="translate(-92.39 -24.68)"/><path class="cls-14" d="M268.48,228c0-.15,0-.29,0-.44a5.2,5.2,0,1,0,0,.44Z" transform="translate(-92.39 -24.68)"/><path class="cls-10" d="M283,269.66a448,448,0,0,0-25.95,48.64,17.67,17.67,0,0,1,3.92-.48,3.48,3.48,0,0,1,1.25.24l9.67-10.12a7.4,7.4,0,0,1,7.91-1.83l1.88.69a2.21,2.21,0,0,1,1-.08l7.93,1.11a27.77,27.77,0,0,1,5.52-16.08c1.29-1.72,2.83-3.38,3.27-5.48a9.59,9.59,0,0,0-.78-5.36A27.68,27.68,0,0,0,288,267.77l.11-.49a13.88,13.88,0,0,0-3.4-.35C284.13,267.84,283.57,268.75,283,269.66Z" transform="translate(-92.39 -24.68)"/><path class="cls-11" d="M262.55,399.42h24.19A57.58,57.58,0,0,0,273,397.06a81.25,81.25,0,0,0-10.81.2l.13,1.66C262.42,399.08,262.48,399.25,262.55,399.42Z" transform="translate(-92.39 -24.68)"/><path class="cls-14" d="M271.9,307.94l-9.67,10.12c2.27.89,2.78,4.13,3.67,6.23.55,1.29,1.14,2.56,1.77,3.82a140,140,0,0,1,17-4.5,2.81,2.81,0,0,0-1.1-.88l-3.11-.43a2.27,2.27,0,0,1-.94-.35,24.69,24.69,0,0,0-3.36.09l-1.72-3,4-4.23a3.75,3.75,0,0,1,.8-.64l.78-5.52a2.29,2.29,0,0,1,1.6-1.88l-1.88-.69A7.4,7.4,0,0,0,271.9,307.94Z" transform="translate(-92.39 -24.68)"/><path class="cls-14" d="M261.78,241.63a10.86,10.86,0,0,0,4.68,4.91,8.23,8.23,0,0,0,6.69.42c1.82-.72,4.14-2.76,4-4.85C271.75,243.2,267.05,244,261.78,241.63Z" transform="translate(-92.39 -24.68)"/><path class="cls-12" d="M269.54,331.59c.58,1,1.17,2,1.8,2.92l1.09.08c5.65-3,11.58-5.4,17.8-6,.79-.08,1.59-.12,2.39-.13.16-1.57.37-3.05.61-4.42l-9.62-1.35a2.81,2.81,0,0,1,1.1.88,140,140,0,0,0-17,4.5C268.26,329.28,268.89,330.45,269.54,331.59Z" transform="translate(-92.39 -24.68)"/><path class="cls-14" d="M274.1,227.57a5.15,5.15,0,0,0,9.68,1.23c0-1.75-.15-3.45-.27-5.05A5.17,5.17,0,0,0,274,227,3.39,3.39,0,0,0,274.1,227.57Z" transform="translate(-92.39 -24.68)"/><path class="cls-12" d="M278.51,314.84l-4,4.23,1.72,3a24.69,24.69,0,0,1,3.36-.09,2.3,2.3,0,0,1-1-2.25l.77-5.5A3.75,3.75,0,0,0,278.51,314.84Z" transform="translate(-92.39 -24.68)"/><path class="cls-9" d="M281.45,267.42a17.92,17.92,0,0,0-1.65-1.92q-2.22,3.74-4.38,7.51a31.49,31.49,0,0,0,6.37-5.14Z" transform="translate(-92.39 -24.68)"/><path class="cls-11" d="M290.62,307.83l-7.93-1.11a2.21,2.21,0,0,0-1,.08l6.1,2.27a1,1,0,0,1,.39,1.72A11,11,0,0,1,281,313.7a4,4,0,0,0-1.71.5l-.77,5.5a2.3,2.3,0,0,0,1,2.25,10.82,10.82,0,0,1,4.05.78l9.62,1.35,11,1.54a2.25,2.25,0,0,0,1.8-.51l-4.22-4.1c1.71-.57,3.75.08,5.27.82l1.29-9.18a2.3,2.3,0,0,0,0-.37l-3-2.38Z" transform="translate(-92.39 -24.68)"/><path class="cls-14" d="M280.09,308.68l-.78,5.52a4,4,0,0,1,1.71-.5,11,11,0,0,0,7.16-2.91,1,1,0,0,0-.39-1.72l-6.1-2.27A2.29,2.29,0,0,0,280.09,308.68Z" transform="translate(-92.39 -24.68)"/><path class="cls-9" d="M282.42,267.18l-.63.69c.42.58.83,1.19,1.22,1.79.56-.91,1.12-1.82,1.69-2.73A12.43,12.43,0,0,0,282.42,267.18Z" transform="translate(-92.39 -24.68)"/><path class="cls-12" d="M288.1,267.28l-.11.49a27.68,27.68,0,0,1,10.64,13.14,9.59,9.59,0,0,1,.78,5.36c-.44,2.1-2,3.76-3.27,5.48a27.77,27.77,0,0,0-5.52,16.08l14.71,2.07L301.64,307c2-.93,4.68-1.43,11.4,2.56s5.58,4.1,5.58,4.1l2.58,9.2c.11-8.08-1.55-17.37-6.13-24.14s-7.59-14.14-12.61-20.62a34.46,34.46,0,0,0-9-8.66A17.52,17.52,0,0,0,288.1,267.28Z" transform="translate(-92.39 -24.68)"/><path class="cls-10" d="M290.23,328.63l0,.38a34.18,34.18,0,0,0,2.06,3.31c.08-1.31.18-2.59.31-3.82C291.82,328.51,291,328.55,290.23,328.63Z" transform="translate(-92.39 -24.68)"/><path class="cls-12" d="M292.62,328.5c-.13,1.23-.23,2.51-.31,3.82,2.82,3.92,5.66,5,11.62,6.82a14.55,14.55,0,0,0,8.05.44,12.08,12.08,0,0,0,7.32-6.72,15.72,15.72,0,0,0,.7-1.76c-3.46,2-10.38-2.46-10.38-2.46L306,325.11a2.25,2.25,0,0,1-1.8.51l-11-1.54C293,325.45,292.78,326.93,292.62,328.5Z" transform="translate(-92.39 -24.68)"/><path class="cls-14" d="M301.64,307l3.69,2.89,1.07.15a2.29,2.29,0,0,1,2,2.23l1.57,1.23s4.48,8.89-.64,9.62a16.38,16.38,0,0,0-2.24-1.3l-.25,1.84a2.29,2.29,0,0,1-.8,1.44l3.61,3.53s6.92,4.48,10.38,2.46a26.54,26.54,0,0,0,1.2-8.23l-2.58-9.2s1.14-.11-5.58-4.1S303.67,306.08,301.64,307Z" transform="translate(-92.39 -24.68)"/><path class="cls-14" d="M301.79,321l4.22,4.1a2.29,2.29,0,0,0,.8-1.44l.25-1.84C305.54,321.09,303.5,320.44,301.79,321Z" transform="translate(-92.39 -24.68)"/><path class="cls-12" d="M308.35,312.65l-1.29,9.18a16.38,16.38,0,0,1,2.24,1.3c5.12-.73.64-9.62.64-9.62l-1.57-1.23A2.3,2.3,0,0,1,308.35,312.65Z" transform="translate(-92.39 -24.68)"/><path class="cls-16" d="M278,242.1l.12.13c1,1.4-2.11,3.7-3.1,4.12a8.12,8.12,0,0,1-6.51-.34c-1.18-.55-5.14-2.93-2.33-4.28,1.46-.69,3.7.72,5.16.9,2,.24,3.57-.53,5.45-.86A1.35,1.35,0,0,1,278,242.1Z" transform="translate(-92.39 -24.68)"/><path class="cls-17" d="M268.48,228c0-.15,0-.29,0-.44a5.2,5.2,0,1,0,0,.44Z" transform="translate(-92.39 -24.68)"/><path class="cls-17" d="M285.15,227.17a3.24,3.24,0,0,0,0-.44,5.2,5.2,0,1,0,0,.44Z" transform="translate(-92.39 -24.68)"/><path class="cls-18" d="M279.05,228.7a8.91,8.91,0,0,1,2.36-.33,1.45,1.45,0,0,0-.75-1.43,1.42,1.42,0,0,0-1.94.64,1.61,1.61,0,0,0-.06,1.27A2.26,2.26,0,0,1,279.05,228.7Z" transform="translate(-92.39 -24.68)"/><path class="cls-18" d="M262.82,229.74a9,9,0,0,1,2.37-.33,1.47,1.47,0,0,0-.75-1.43,1.42,1.42,0,0,0-1.94.64,1.53,1.53,0,0,0-.06,1.27A2.5,2.5,0,0,1,262.82,229.74Z" transform="translate(-92.39 -24.68)"/><path class="cls-19" d="M98.48,283.61,238.06,156.3a75,75,0,0,1,10.08-99.46,74.91,74.91,0,1,1,2.4,112.87L110.83,297.13a9.16,9.16,0,0,1-12.35-13.52Z" transform="translate(-92.39 -24.68)"/><path class="cls-20" d="M107.72,289.12a9.16,9.16,0,0,1-12.35-13.53L234.94,148.28a78.07,78.07,0,0,0,5.16,6.43,86,86,0,0,0,7.32,7Z" transform="translate(-92.39 -24.68)"/><path class="cls-21" d="M346,159.51a74.94,74.94,0,0,1-98.57,2.18,86,86,0,0,1-7.32-7,78.07,78.07,0,0,1-5.16-6.43,73.85,73.85,0,0,1-14.27-41.14l7,.32a67.37,67.37,0,0,0,12.52,36.1,71.51,71.51,0,0,0,5.11,6.45,72.87,72.87,0,0,0,7.38,6.92,67.89,67.89,0,0,0,110.07-43.27l7,.35A74.68,74.68,0,0,1,346,159.51Z" transform="translate(-92.39 -24.68)"/><path class="cls-22" d="M341.28,154.38a67.94,67.94,0,0,1-88.63,2.55,72.87,72.87,0,0,1-7.38-6.92,71.51,71.51,0,0,1-5.11-6.45,67.37,67.37,0,0,1-12.52-36.1l135.08,6.2A67.34,67.34,0,0,1,341.28,154.38Z" transform="translate(-92.39 -24.68)"/><path class="cls-23" d="M227.64,107.46l-7-.32A74.9,74.9,0,1,1,369.77,114l-7-.35a67.91,67.91,0,1,0-135.08-6.2Z" transform="translate(-92.39 -24.68)"/><path class="cls-24" d="M362.72,113.66l-135.08-6.2a67.92,67.92,0,1,1,135.08,6.2ZM281.85,71.74a13,13,0,1,0,.85-18.28A12.92,12.92,0,0,0,281.85,71.74Zm36.6.39a5.91,5.91,0,1,0,8.73-8,5.84,5.84,0,0,0-8.32-.39A6,6,0,0,0,318.45,72.13Z" transform="translate(-92.39 -24.68)"/><path class="cls-16" d="M300.12,72.59A12.94,12.94,0,1,1,301,54.28,12.92,12.92,0,0,1,300.12,72.59Z" transform="translate(-92.39 -24.68)"/><path class="cls-16" d="M326.82,72.5a5.9,5.9,0,1,1-8-8.72,5.9,5.9,0,0,1,8,8.72Z" transform="translate(-92.39 -24.68)"/><path class="cls-25" d="M113.93,399.42c-1.59-5.63-3.19-11.58-4.56-17.91-1.54-.23-3.11-.43-4.67-.61-1.33-.16-2.67-.28-4-.37-.93,5.9-.45,12.27-1.29,18-.05.32-.16.61-.22.93Z" transform="translate(-92.39 -24.68)"/><path class="cls-26" d="M98.09,311.37c-2.53,6.5-3.8,13.66-2.43,20.49a24.59,24.59,0,0,0,6.14,11.85c.5-5.14,1.19-10.26,2.12-15.35.52-2.77,1.11-5.55,1.79-8.31,3-12.21,7.79-24,14.85-34.32l-.07-.19c-3.57,1.2-8.25,2.61-10.68,5.66A77.89,77.89,0,0,0,98.09,311.37Z" transform="translate(-92.39 -24.68)"/><path class="cls-27" d="M109.31,381.24l.5.07c10.87,1.68,21.66,4.34,32.67,4.55a55.71,55.71,0,0,0,15.21-1.69c0,.07,0,.12,0,.19l.18-.05a41.27,41.27,0,0,0,5.95-2v-.19L164,382q.06-5.24.19-10.45c-1.27-5.08-2.79-10.12-3.86-15.24a90.12,90.12,0,0,1-.88-32c1.39-9.11,4.37-18.34,10.71-25,5.42-5.71,12.72-9,20.17-11.81,2.63-2.22,5.43-3.89,8.51-6.27,6.11-4.75,11.74-11.21,16.8-17a114.72,114.72,0,0,0,23.51-43.3c.35-1.2.67-2.39,1-3.59a40.88,40.88,0,0,1-9.91-2.41c-.5-.18-1-.39-1.48-.59a102.69,102.69,0,0,1-43.64,53.26l-.18.06a93.79,93.79,0,0,1-19.27,8.89,70.43,70.43,0,0,1-8.88,2.25l-1.58.28c-4.5.79-9.05,1.31-13.61,1.95-1.41.19-2.8.4-4.21.63-.91.14-1.82.3-2.74.48a100.3,100.3,0,0,0-14,3.61c-7.06,10.28-11.82,22.11-14.85,34.32-.68,2.76-1.27,5.54-1.79,8.31-.93,5.09-1.62,10.21-2.12,15.35-.51,5.3-.83,10.61-1,15.94-.26,6.94-.31,13.9-.34,20.85l.25,0c1.34.09,2.68.21,4,.37,1.56.18,3.13.38,4.67.61A2.61,2.61,0,0,1,109.31,381.24Z" transform="translate(-92.39 -24.68)"/><path class="cls-28" d="M157,399.42l.69-15.06a56,56,0,0,1-15,1.69c-11-.18-21.81-2.81-32.68-4.45l-.5-.08h-.1c1.37,6.33,3,12.28,4.56,17.91Z" transform="translate(-92.39 -24.68)"/><path class="cls-29" d="M141.68,266a14.68,14.68,0,0,0-1.43-4.83c-2.34-4.65-6.52-7.81-10.72-10.49s-8.62-5.15-12-9a23.43,23.43,0,0,1-5.28-12.56c-.33,1.36-.6,2.77-.83,4.21-.86,5.53-1.72,11.3-.92,16.9,1,7.12,4.9,10.83,11,12.89l16.09,5.4a11.09,11.09,0,0,0,4.09.82A14.84,14.84,0,0,0,141.68,266Z" transform="translate(-92.39 -24.68)"/><path class="cls-30" d="M134.28,230.63c.34,4.39,3.05,6.21,6.45,7.55,2,.76,4.14,2.21,4.23,4.48-2-.83-4-1.66-6.06-1.21s-3.88,2.77-3.19,4.92a4.22,4.22,0,0,0,3.11,2.56c1.32.31,2.69.23,4,.43a8.64,8.64,0,0,1,7.14,6.37c.92,3.93-1.23,8-3.8,10.89a8.55,8.55,0,0,1-3,2.39,9.75,9.75,0,0,0-1.56-3,14.68,14.68,0,0,0-1.43-4.83c-2.34-4.65-6.52-7.81-10.72-10.49s-8.62-5.15-12-9a23.43,23.43,0,0,1-5.28-12.56c2.36-9.87,7.6-17.25,19.76-16.82,13.19.45,8.12,5.89,4.56,11.75C135.27,226.28,134.13,228.55,134.28,230.63Z" transform="translate(-92.39 -24.68)"/><path class="cls-31" d="M136.61,224.07c-1.34,2.21-2.48,4.48-2.33,6.56.34,4.39,3.05,6.21,6.45,7.55,2,.76,4.14,2.21,4.23,4.48-2-.83-4-1.66-6.06-1.21s-3.88,2.77-3.19,4.92a4.22,4.22,0,0,0,3.11,2.56c1.32.31,2.69.23,4,.43a8.64,8.64,0,0,1,7.14,6.37c.92,3.93-1.23,8-3.8,10.89a8.55,8.55,0,0,1-3,2.39,5.7,5.7,0,0,1,.16.55c.91,3.55-.35,7.28-1.6,10.7-.08.25-.18.5-.26.75,4.56-.64,9.11-1.16,13.61-1.95l1.58-.28c.5-3.35,1-6.68,1.48-10,.46-3.14,1-6.4,2.67-9,1.23-1.86,3-3.3,3.84-5.42a8.71,8.71,0,0,0-.26-6.15,19.57,19.57,0,0,0-3.31-5.17c-.94-1.15-3.93-3.26-3.75-4.89a5.57,5.57,0,0,0,.14-1.94,2.77,2.77,0,0,0-1.67-1.61,90.47,90.47,0,0,1-10-5.38A65.91,65.91,0,0,0,136.61,224.07Z" transform="translate(-92.39 -24.68)"/><path class="cls-26" d="M190.06,296.22l.22-.19,11.95-10.26c5-4.33,10.1-8.68,14.3-13.82,4.59-5.64,8-12.09,11.46-18.5,6.16-11.54,12.39-23.22,15.66-35.88-1.09,0-2.19-.1-3.28-.21-.42,1.2-.83,2.41-1.25,3.55a114.72,114.72,0,0,1-23.51,43.3c-5.06,5.83-10.69,12.29-16.8,17-3.08,2.38-5.88,4.05-8.51,6.27-7.45,2.77-14.75,6.1-20.17,11.81-6.34,6.69-9.32,15.92-10.71,25a90.12,90.12,0,0,0,.88,32c1.07,5.12,2.59,10.16,3.86,15.24.35-13,1.27-26,4-38.76.12-.52.22-1,.35-1.57a110.52,110.52,0,0,1,12.7-24.87A49.75,49.75,0,0,1,190.06,296.22Z" transform="translate(-92.39 -24.68)"/><path class="cls-31" d="M240.09,217.32l.28,0a33.64,33.64,0,0,1,3.49-7.65,45.63,45.63,0,0,0,5.07-11c.92-2.66,4.06-10.61.48-12.47,0,0,.85-7.45-3.09-6.61,0,0-1.53-5.67-4.77,1.83,0,0-2.23-2.88-4.81,5.8l-2.58,8.69s-2.56-5.72-6.39-7.08c-1.81-.64-1.11,1.33-.77,2.34.82,2.55,2.06,4.93,2.84,7.52a29.61,29.61,0,0,1,1.28,7.7,30.35,30.35,0,0,1-.94,8.5A40.88,40.88,0,0,0,240.09,217.32Z" transform="translate(-92.39 -24.68)"/><path class="cls-31" d="M228.7,214.32c.49.2,1,.41,1.48.59a30.35,30.35,0,0,0,.94-8.5Q230.09,210.42,228.7,214.32Z" transform="translate(-92.39 -24.68)"/><path class="cls-32" d="M146.11,234.07a8.2,8.2,0,0,0-1.15,2,1.33,1.33,0,0,1,.26-2.62,1.45,1.45,0,0,1,1.15.37A2.43,2.43,0,0,0,146.11,234.07Z" transform="translate(-92.39 -24.68)"/><path class="cls-11" d="M342.22,300.87c-3.9,5.87-9.13,12.3-7.6,19.85,1.06,5.16,4.48,9.54,8.2,13.28a101.19,101.19,0,0,0,13.54,11.15,15.37,15.37,0,0,0-1.67-10.75c-1.66-2.85-4.27-5.23-5.06-8.44-.83-3.4.6-6.91,2.07-10.09q1.31-2.83,2.68-5.63,2.39-4.86,5-9.61c.05-.33.11-.64.18-1-3.24-2.58-7.26-4.46-10.09-7.63-.18-.2-.35-.39-.52-.6C346.55,294.5,344.35,297.65,342.22,300.87Z" transform="translate(-92.39 -24.68)"/><path class="cls-33" d="M343.54,269.89a1.56,1.56,0,0,0,0,1.24,53.91,53.91,0,0,0,3,8.51h0a70.52,70.52,0,0,1,7.6,4.11c.14.13.4.34.73.61,2.1,1.68,7.23,5.48,7.2,1.95a4,4,0,0,0-.63-1.81c-.52-.91-1-2.14-.33-2.89a.83.83,0,0,1,.21-.17c-.35-.8-.68-1.6-1-2.42-.51-1.28-1-2.57-1.41-3.88-.8-2.46-1.4-5.82-4.54-6.08-1.69-.13-3.38.13-5.07.12a29.45,29.45,0,0,0-4.69.2A1.56,1.56,0,0,0,343.54,269.89Z" transform="translate(-92.39 -24.68)"/><path class="cls-14" d="M346.55,279.64h0c-1.31-.62-2.26-1-2.27-.72-.29,4.55,1.7,9,4.63,12.52.17.21.34.4.52.6,2.83,3.17,6.85,5,10.09,7.63a17.5,17.5,0,0,1,2.85,2.79l1.05,1.37a19.87,19.87,0,0,1,7.57-7.52,7.77,7.77,0,0,1-1.45-2.25c-.81-2-1.88-3.86-2.69-5.8s-1.21-3.9-2.61-5.69a3.73,3.73,0,0,0-1.39-1.2,1.66,1.66,0,0,0-1.52.07.83.83,0,0,0-.21.17c-.71.75-.19,2,.33,2.89a4,4,0,0,1,.63,1.81c0,3.53-5.1-.27-7.2-1.95-.33-.27-.59-.48-.73-.61A70.52,70.52,0,0,0,346.55,279.64Z" transform="translate(-92.39 -24.68)"/><path class="cls-13" d="M351.7,315.87c-1.47,3.18-2.9,6.69-2.07,10.09.79,3.21,3.4,5.59,5.06,8.44a15.37,15.37,0,0,1,1.67,10.75l2,1.36c.07-.54.14-1.08.23-1.62.34-2.23,1.46-4.17,1.84-6.46a40.78,40.78,0,0,0,.43-7.65l-2.29-4.25a15.06,15.06,0,0,1-1.92-4.92c-.37-2.79.87-5.46,2.38-7.92a38.35,38.35,0,0,0-4.55-3.42l-.07,0Q353,313,351.7,315.87Z" transform="translate(-92.39 -24.68)"/><path class="cls-13" d="M354.38,310.24l.07,0a38.35,38.35,0,0,1,4.55,3.42,1.74,1.74,0,0,1,.11-.18h0c-.12-1.34-.22-2.66-.27-4a40.72,40.72,0,0,1,.5-8.9Q356.76,305.39,354.38,310.24Z" transform="translate(-92.39 -24.68)"/><path class="cls-11" d="M358.34,370.58h0a6.67,6.67,0,0,0,.31.78c1.75,3.95,5.16,4.13,9.11,4.65,4.2.57,8.45.68,12.69.89a84.23,84.23,0,0,1,14.18,2.25c5.61,1.34,11.15,3.49,16.66,5.21,3.64,1.14,8.18,1.93,11.29,0a6.94,6.94,0,0,0,2.81-3.6c2.58-6.84-1.11-13.33-2.44-19.92a81.19,81.19,0,0,1-1-21.79c0-.24,0-.47.05-.7-1.41,2.06-2.94,4.06-4.55,6-3.58,4.23-8.3,8.35-13.83,8.08a11.87,11.87,0,0,1-2.06-.28h0c-2.9-1.53-5.8-3.09-8.6-4.78a68.35,68.35,0,0,1-11.6-8.46c-8.2-7.57-13.89-17.82-22.21-25.06.53,5.41,1.47,10.85,1.68,16.17,0,.27,0,.53,0,.81a40.78,40.78,0,0,1-.43,7.65c-.38,2.29-1.5,4.23-1.84,6.46-.09.54-.16,1.08-.23,1.62a143.62,143.62,0,0,0-.72,17.46A21.18,21.18,0,0,0,358.34,370.58Z" transform="translate(-92.39 -24.68)"/><path class="cls-12" d="M358.34,370.59q0,3.18,0,6.32a36.72,36.72,0,0,0,18.51,8.35c6.3.9,12.73.13,19.06.71,4,.35,16.94,5.56,25.81,9.32.22-3.72.51-7.52.82-10.94-3.11,1.95-7.65,1.16-11.29,0-5.51-1.72-11.05-3.87-16.66-5.21a84.23,84.23,0,0,0-14.18-2.25c-4.24-.21-8.49-.32-12.69-.89-3.95-.52-7.36-.7-9.11-4.65A6.67,6.67,0,0,1,358.34,370.59Z" transform="translate(-92.39 -24.68)"/><path class="cls-13" d="M359.34,300.63a40.72,40.72,0,0,0-.5,8.9l1.86-.08a33.44,33.44,0,0,1,2.72-5.62l-1.05-1.37a17.5,17.5,0,0,0-2.85-2.79C359.45,300,359.39,300.3,359.34,300.63Z" transform="translate(-92.39 -24.68)"/><path class="cls-13" d="M392.94,347.32c2.8,1.69,5.7,3.25,8.6,4.78h0a11.87,11.87,0,0,0,2.06.28c5.53.27,10.25-3.85,13.83-8.08,1.61-1.91,3.14-3.91,4.55-6h0c1-13.42,5.3-26.76,6.7-40.07A127.87,127.87,0,0,1,423.89,313c-2.56,6.9-5.13,13.79-8.31,20.42-2.49,5.16-6.07,10.83-12.49,10.75-2.86,0-4.92-.48-7.06-2.36a78.63,78.63,0,0,1-6.61-6.68c-4-4.53-7.61-9.39-11.35-14.14-.44-.55-.87-1.1-1.32-1.65-3.22-4-6.66-7.78-10-11.64-.68-.78-1.46-1.36-2.09-2.21l-1.2-1.61a33.44,33.44,0,0,0-2.72,5.62l-1.86.08c.05,1.32.15,2.64.27,4h0c0,.1,0,.2,0,.29,8.32,7.24,14,17.49,22.21,25.06A68.35,68.35,0,0,0,392.94,347.32Z" transform="translate(-92.39 -24.68)"/><path class="cls-11" d="M391.65,310.29a59.77,59.77,0,0,1,9.16,11.32c1.51-9.82,4.25-19.27,7.05-28.78a31.2,31.2,0,0,0-6.28,6.7c-1.83,2.66-3.28,5.65-5.65,7.84a9.58,9.58,0,0,1-4.82,2.42Zm37-12A127.87,127.87,0,0,1,423.89,313c-2.56,6.9-5.13,13.79-8.31,20.42-2.49,5.16-6.07,10.83-12.49,10.75-2.86,0-4.92-.48-7.06-2.36a78.63,78.63,0,0,1-6.61-6.68c-4-4.53-7.61-9.39-11.35-14.14-.44-.55-.87-1.1-1.32-1.65-3.22-4-6.66-7.78-10-11.64-.68-.78-1.46-1.36-2.09-2.21l-1.2-1.61a19.87,19.87,0,0,1,7.57-7.52,7.77,7.77,0,0,1-1.45-2.25c-.81-2-1.88-3.86-2.69-5.8s-1.21-3.9-2.61-5.69a3.73,3.73,0,0,0-1.39-1.2,1.66,1.66,0,0,0-1.52.07c-.35-.8-.68-1.6-1-2.42,7.16-6.31,15.69-11.21,25-12.91,0,.73.08,1.47.11,2.2q.27,6.92-.05,13.82c-.08,1.78-.19,3.57-.34,5.36A25.81,25.81,0,0,0,401.28,282a22.67,22.67,0,0,0,8-13c.82.18,1.65.34,2.47.54C418,271,424,274.56,427.48,280c3.27,5,2.82,10.18,1.72,15.85-.16.82-.34,1.63-.52,2.43Z" transform="translate(-92.39 -24.68)"/><path class="cls-10" d="M379.63,399.42c-.06-.91-.11-1.81-.16-2.71.65.89,1.23,1.81,1.85,2.71h40.23c.06-1.36.13-2.73.21-4.13-8.87-3.76-21.84-9-25.81-9.32-6.33-.58-12.76.19-19.06-.71a36.72,36.72,0,0,1-18.51-8.35c.11,7.71.51,15.16,1,22.51Z" transform="translate(-92.39 -24.68)"/><path class="cls-10" d="M398.3,231.56a15,15,0,0,1,2.8,5c.2.61.38,1.26.54,1.91.89-5.44.62-11.17-1.84-16.2a18.71,18.71,0,0,0-2.74-4.12,17.05,17.05,0,0,0-7.62-5.05c-2.15-.7-3.62-1.37-6-1.17a24.15,24.15,0,0,0-7.86,2.13c-6.3,2.85-10.71,8.42-10.53,15.63a16.8,16.8,0,0,0,4.55,10.88,55.71,55.71,0,0,1-2.4-10.27,5.86,5.86,0,0,1,.86-1.28,12.34,12.34,0,0,1,4.93-3.11,15,15,0,0,1,5.81-1.22A7.41,7.41,0,0,1,384.2,227c1.26,1.41,1.74,3.31,2.41,5.08a23.47,23.47,0,0,0,2.62,4.92,1.43,1.43,0,0,0,.77.67c.57.14,1.09-.43,1.19-1a6.4,6.4,0,0,0-.14-1.74A4.11,4.11,0,0,1,393.3,231c1.34-.65,3.82-.46,4.89.7Z" transform="translate(-92.39 -24.68)"/><path class="cls-14" d="M397.72,240.32a32.79,32.79,0,0,0,.91-3.32c.25-1.48.71-4.12-.44-5.35s-3.55-1.35-4.89-.7a4.11,4.11,0,0,0-2.25,3.94,6.4,6.4,0,0,1,.14,1.74c-.1.57-.62,1.14-1.19,1a1.43,1.43,0,0,1-.77-.67,23.47,23.47,0,0,1-2.62-4.92c-.67-1.77-1.15-3.67-2.41-5.08a7.41,7.41,0,0,0-5.36-2.27,15,15,0,0,0-5.81,1.22A12.34,12.34,0,0,0,368.1,229a5.86,5.86,0,0,0-.86,1.28,55.71,55.71,0,0,0,2.4,10.27A56.77,56.77,0,0,0,376.22,254a19.19,19.19,0,0,0,4.72,5.23,9.16,9.16,0,0,0,4,1.59,6.77,6.77,0,0,0,2.69-.16c2.41-.67,4.19-2.69,5.53-4.79a27,27,0,0,0,4.17-13.32,9,9,0,0,1,.38-2.25Z" transform="translate(-92.39 -24.68)"/><path class="cls-13" d="M385,287.49A25.81,25.81,0,0,0,401.28,282a22.67,22.67,0,0,0,8-13,17.25,17.25,0,0,1-4.22-1.38,7,7,0,0,1-1.24-.81,19.26,19.26,0,0,1-18.44,15.36C385.3,283.91,385.19,285.7,385,287.49Z" transform="translate(-92.39 -24.68)"/><path class="cls-34" d="M385.32,266.11c0,.73.08,1.47.11,2.2,6.46-3.5,11.72-12.95,13.44-19.33h0c-.5-3.13-1-6.26-1.15-8.64a9,9,0,0,0-.38,2.25,27,27,0,0,1-4.17,13.32c-1.34,2.1-3.12,4.12-5.53,4.79a6.77,6.77,0,0,1-2.69.16C385.1,262.6,385.22,264.35,385.32,266.11Z" transform="translate(-92.39 -24.68)"/><path class="cls-14" d="M385.43,268.31q.27,6.92-.05,13.82a19.26,19.26,0,0,0,18.44-15.36c-2.41-1.95-3-5.14-3.43-8.2-.29-2.25-.93-5.9-1.52-9.59C397.15,255.36,391.89,264.81,385.43,268.31Z" transform="translate(-92.39 -24.68)"/><path class="cls-13" d="M391.11,309.79l.54.5a59.77,59.77,0,0,1,9.16,11.32c1.51-9.82,4.25-19.27,7.05-28.78a31.2,31.2,0,0,0-6.28,6.7c-1.83,2.66-3.28,5.65-5.65,7.84A9.58,9.58,0,0,1,391.11,309.79Z" transform="translate(-92.39 -24.68)"/><path class="cls-10" d="M397.72,240.32h0c.18,2.38.65,5.51,1.15,8.64h0c0-.1.06-.21.09-.31.8-3.11,2-6.15,2.53-9.33l.15-.87c-.16-.65-.34-1.3-.54-1.91a15,15,0,0,0-2.8-5l-.11.09c1.15,1.23.69,3.87.44,5.35A32.79,32.79,0,0,1,397.72,240.32Z" transform="translate(-92.39 -24.68)"/><path class="cls-12" d="M397.06,218.15a18.71,18.71,0,0,1,2.74,4.12c2.46,5,2.73,10.76,1.84,16.2.79,3.15,1.41,6.51,4.16,8,2.54,1.35,5.73.3,8.49,1.09,2.94.83,4.92,3.6,6,6.45s1.51,5.92,2.62,8.75,3.18,5.58,6.14,6.33c2.41.6,4.95-.22,7.19-1.31s4.38-2.43,6.81-3,5.29-.11,6.8,1.85a15.43,15.43,0,0,1,1.58,3.3,13.1,13.1,0,0,0,13.42,7.24,15.22,15.22,0,0,0,11.9-10,18.12,18.12,0,0,0-2.12-15.64,22.6,22.6,0,0,0-13.05-9.22,30.24,30.24,0,0,0-16.15.34c-2.63.75-5.2,1.8-7.92,2.06s-5.73-.43-7.43-2.57c-1.88-2.39-1.64-5.74-2.11-8.74-1.1-6.92-6.6-12.69-13.19-15.09A28.42,28.42,0,0,0,397.06,218.15Z" transform="translate(-92.39 -24.68)"/><path class="cls-18" d="M382.48,238.4a1.16,1.16,0,0,0,1.55-.18,1,1,0,0,0-.16-1.46,1.16,1.16,0,0,0-1.55.18A1,1,0,0,0,382.48,238.4Z" transform="translate(-92.39 -24.68)"/><path class="cls-18" d="M371,241.49a1.12,1.12,0,0,0,1.46.5,1,1,0,0,0,.55-1.38,1.11,1.11,0,0,0-1.45-.5A1,1,0,0,0,371,241.49Z" transform="translate(-92.39 -24.68)"/><path class="cls-35" d="M600.9,280.48c2.22-6.71,5.25-13.36,10.32-18.3s12.49-7.89,19.34-6.14a193.11,193.11,0,0,1-22.8,30.28C604.2,285.34,603.32,283.28,600.9,280.48Z" transform="translate(-92.39 -24.68)"/><path class="cls-35" d="M580.68,336.87c5.48-4.47,11.61-8.44,18.54-9.88s14.77.06,19.61,5.22a192.61,192.61,0,0,1-35.51,13.27C580.84,342.74,581.21,340.53,580.68,336.87Z" transform="translate(-92.39 -24.68)"/><path class="cls-36" d="M614.66,280.56c.21.3.41.6.59.92-5.21,7.75-11,15.07-18.82,20.11a43.2,43.2,0,0,1-25.94,6.77,41.79,41.79,0,0,1-7.38-1.13,29.83,29.83,0,0,0,.24-7,63.58,63.58,0,0,0-5.73-20.42c3.41,1.57,6.87,3,10.39,4.35,3.14,1.16,6.27,2.58,9.64,2.88a22.29,22.29,0,0,0,9.87-1.39c5.34-2,9.87-5.77,13.58-10.1q1.47-1.74,2.8-3.59a41.85,41.85,0,0,1,5.2,3.12A23.57,23.57,0,0,1,614.66,280.56Z" transform="translate(-92.39 -24.68)"/><path class="cls-13" d="M595.61,343c.23.75.45,1.5.64,2.27q-2.62.53-5.27,1l-.33-2A44.33,44.33,0,0,0,595.61,343Z" transform="translate(-92.39 -24.68)"/><path class="cls-13" d="M590.65,344.22l.33,2a172.09,172.09,0,0,1-18.4,2.1c-4.59.27-9.11.54-13.65.65,0-2.29,0-4.31.08-5.88.11-3.75.33-7.51.67-11.26,0-.34.07-.67.12-1,4.25.14,8.51,0,12.75-.27a139.77,139.77,0,0,0,17.09-1.88c.15.26.3.53.43.8a73.41,73.41,0,0,1,5.54,13.5A44.33,44.33,0,0,1,590.65,344.22Z" transform="translate(-92.39 -24.68)"/><path class="cls-37" d="M562.88,232.92a13.49,13.49,0,0,1-6.71,2.71c-4.63.53-9.24-1-13.48-2.91-1.49-.69-3.29-1.42-4.7-.56s-1.58,3.05-1.47,4.81l.45,7.38a4.2,4.2,0,0,1-.19,1.9,1.4,1.4,0,0,1-1.55.88c-.68-.2-.94-1-1.1-1.71-.56-2.46-.6-5.81-2.62-7.52a4.3,4.3,0,0,0-2.34-1.06,2.62,2.62,0,0,0-2.31,1c-.72,1-.42,2.41,0,3.6a29,29,0,0,0,1.54,3.73c-.34,2.68-.55,5.37-.9,8,0,.34-.09.69-.14,1-.24,1.68-.43,4.15-1,6.42l-.24-.25a12.17,12.17,0,0,1-2.06-2.73c-.85-1.79-.46-4.32-.6-6.27a30.43,30.43,0,0,0-1.44-7.32c-1-3-2.44-5.78-3.44-8.75a15.67,15.67,0,0,1-.7-9.24c.86-3,3.42-5.7,6.55-5.94a9.06,9.06,0,0,1,8.73-8c4.22,0,8.06,3,12.27,2.78,3.37-.19,6.38-2.47,9.76-2.57,3.74-.12,7.1,2.49,9.17,5.61,1.87,2.84,3,6.37,2.15,9.66A9.89,9.89,0,0,1,562.88,232.92Z" transform="translate(-92.39 -24.68)"/><path class="cls-13" d="M493.35,293.07v-.25c-.06-9,6.15-17.31,14.11-21.59a37.13,37.13,0,0,1,10.2-3.61c2-.42,4.2-.72,5.91-1.88.31.92.67,1.83,1.06,2.72a32.82,32.82,0,0,0,18.53,17.48q.12-6.58.41-13.14c2.1,1.08,4.17,2.21,6.25,3.25,2.58,1.29,5.17,2.55,7.8,3.75a63.58,63.58,0,0,1,5.73,20.42,29.83,29.83,0,0,1-.24,7c-.15,1.21-.33,2.42-.49,3.65-.49,3.78-1,7.54-1.45,11.32a15.84,15.84,0,0,1-.16,2.17,43.94,43.94,0,0,1-24.32-11.75c-4.11-3.93-6.05-8.6-9.26-13a23.3,23.3,0,0,0-8.66-6.8c1.77,5.66,3.17,11.45,5.42,16.94,2.66,6.49,6.7,12.74,12.75,16.3,4,2.35,8.61,3.39,13.2,4a91.58,91.58,0,0,0,9.66.78c0,.34-.09.67-.12,1-.34,3.75-.56,7.51-.67,11.26,0,1.57-.07,3.59-.08,5.88a121,121,0,0,1-16.54-.57,91.69,91.69,0,0,1-19.55-4.12,29.7,29.7,0,0,1-13-9.13,58.78,58.78,0,0,1-6.1-8.8c-1.06-1.82-2.16-3.67-3.22-5.54-.29-1.92-.55-3.84-.81-5.77-1.67-3.94-3.13-8-4.41-12.05A35.85,35.85,0,0,1,493.35,293.07Z" transform="translate(-92.39 -24.68)"/><path class="cls-35" d="M528.37,245.14a29,29,0,0,1-1.54-3.73c-.39-1.19-.69-2.58,0-3.6a2.62,2.62,0,0,1,2.31-1,4.3,4.3,0,0,1,2.34,1.06c2,1.71,2.06,5.06,2.62,7.52.16.7.42,1.51,1.1,1.71a1.4,1.4,0,0,0,1.55-.88,4.2,4.2,0,0,0,.19-1.9l-.45-7.38c-.11-1.76,0-3.89,1.47-4.81s3.21-.13,4.7.56c4.24,1.92,8.85,3.44,13.48,2.91a13.49,13.49,0,0,0,6.71-2.71c.06,8.05-2.25,16.28-4.85,23.8-1.4,4.06-3.55,8.19-8.33,8.11a13.87,13.87,0,0,1-5.64-1.39,25.86,25.86,0,0,1-6.93-5,37,37,0,0,1-6-8.22C530.17,248.56,529.2,246.87,528.37,245.14Z" transform="translate(-92.39 -24.68)"/><path class="cls-36" d="M561,324.37c-.29,2.17-.91,4.31-1.21,6.47a91.58,91.58,0,0,1-9.66-.78c-4.59-.63-9.21-1.67-13.2-4-6.05-3.56-10.09-9.81-12.75-16.3-2.25-5.49-3.65-11.28-5.42-16.94a23.3,23.3,0,0,1,8.66,6.8c3.21,4.42,5.15,9.09,9.26,13A43.94,43.94,0,0,0,561,324.37Z" transform="translate(-92.39 -24.68)"/><path class="cls-13" d="M555.67,377.53c-2.39.07-4.77.12-7.16.14q-18,.22-36-1.24a242.31,242.31,0,0,0-1.64-33.88c6.81,5.55,15.39,8.73,24.09,10.12a103.35,103.35,0,0,0,24,.5c0,8.15.29,17.93.73,23,0,.41.07.83.11,1.25l-3.22.11C556.26,377.52,556,377.52,555.67,377.53Z" transform="translate(-92.39 -24.68)"/><path class="cls-36" d="M558.93,349c0,1.32,0,2.72,0,4.18a103.35,103.35,0,0,1-24-.5c-8.7-1.39-17.28-4.57-24.09-10.12-.3-2.5-.63-5-1-7.38a29.7,29.7,0,0,0,13,9.13,91.69,91.69,0,0,0,19.55,4.12A121,121,0,0,0,558.93,349Z" transform="translate(-92.39 -24.68)"/><path class="cls-38" d="M541.23,399.42l5.91-17.66a29,29,0,0,0,8.61-3.72c1.26,7.47,2,14.5,2.61,21.38Z" transform="translate(-92.39 -24.68)"/><path class="cls-39" d="M555.67,377.53c0,.17.06.34.08.51a29,29,0,0,1-8.61,3.72c.46-1.36.91-2.72,1.37-4.09C550.9,377.65,553.28,377.6,555.67,377.53Z" transform="translate(-92.39 -24.68)"/><path class="cls-39" d="M512.5,376.43q18,1.45,36,1.24c-.46,1.37-.91,2.73-1.37,4.09-6.42,1.7-13.45,1.61-19.87,1a149.36,149.36,0,0,0-29.14.14c.8-2.56,1.84-5,2.8-7.54Q506.7,376,512.5,376.43Z" transform="translate(-92.39 -24.68)"/><path class="cls-40" d="M544.06,263.44c-.07,1.05-.13,2.11-.19,3.16-6.12-3.65-12.5-7.58-16.4-13.42.35-2.67.56-5.36.9-8,.83,1.73,1.8,3.42,2.73,5.06a37,37,0,0,0,6,8.22A25.86,25.86,0,0,0,544.06,263.44Z" transform="translate(-92.39 -24.68)"/><path class="cls-35" d="M526.38,260.63c.52-2.27.71-4.74,1-6.42,0-.34.1-.69.14-1,3.9,5.84,10.28,9.77,16.4,13.42-.12,2.07-.22,4.13-.3,6.2a45.46,45.46,0,0,0-11.47-4.47,15.47,15.47,0,0,0-7.47.13c-.39-.89-.75-1.8-1.06-2.72l.25-.18C525.15,264.56,525.9,262.68,526.38,260.63Z" transform="translate(-92.39 -24.68)"/><path class="cls-35" d="M543.57,272.8q-.3,6.56-.41,13.14a32.82,32.82,0,0,1-18.53-17.48,15.47,15.47,0,0,1,7.47-.13A45.46,45.46,0,0,1,543.57,272.8Z" transform="translate(-92.39 -24.68)"/><path class="cls-38" d="M498.51,399.42a24.7,24.7,0,0,1-2.17-3.74,39.18,39.18,0,0,1,1.56-12c.07-.26.15-.51.23-.76a149.36,149.36,0,0,1,29.14-.14c6.42.63,13.45.72,19.87-1l-5.91,17.66Z" transform="translate(-92.39 -24.68)"/><path class="cls-36" d="M510.86,342.55a242.31,242.31,0,0,1,1.64,33.88q-5.81-.45-11.57-1.09a51.05,51.05,0,0,0,2-6c1.28-5.07,1.22-21,.88-26.16a149.59,149.59,0,0,0-2.43-17.35c-.31-1.66-.58-3.34-.83-5,1.06,1.87,2.16,3.72,3.22,5.54a58.78,58.78,0,0,0,6.1,8.8C510.23,337.59,510.56,340.05,510.86,342.55Z" transform="translate(-92.39 -24.68)"/><path class="cls-13" d="M500.53,320.83a96.26,96.26,0,0,1-5.1-10.08,35.76,35.76,0,0,1-2.08-17.68,35.85,35.85,0,0,0,2,9.94c1.28,4.09,2.74,8.11,4.41,12.05C500,317,500.24,318.91,500.53,320.83Z" transform="translate(-92.39 -24.68)"/><path class="cls-41" d="M548.92,243.1a1,1,0,0,1-1.41.06.91.91,0,0,1-.06-1.33,1,1,0,0,1,1.41-.05A.89.89,0,0,1,548.92,243.1Z" transform="translate(-92.39 -24.68)"/><path class="cls-41" d="M559.59,244.26a1,1,0,0,1-1.23.65.92.92,0,0,1-.69-1.15,1,1,0,0,1,1.23-.65A.92.92,0,0,1,559.59,244.26Z" transform="translate(-92.39 -24.68)"/><path class="cls-42" d="M609.94,399.42H617l-8.79-30.57,65.94-.13,8.84,30.7h7.08L657.75,287.09s0-.08,0-.12a2.39,2.39,0,0,0-.43-1.33L618.08,149.28a3.53,3.53,0,0,0-4.15-2.12c-1.85.38-3,1.93-2.54,3.48l5.16,17.94-65.94.14-5.55-19.29a3.53,3.53,0,0,0-4.16-2.13c-1.84.38-3,1.94-2.53,3.49Zm62.65-36.21-66,.13-9.51-33,65.94-.13Zm-11.1-38.54-66,.13-10-34.93,65.94-.13Zm-11.64-40.44-66,.13-9.51-33,65.94-.13Zm-11.1-38.55-66,.13-9.51-33,65.94-.13Zm-20.61-71.59,9.51,33-65.95.13-9.51-33.05Z" transform="translate(-92.39 -24.68)"/><path class="cls-43" d="M589.84,206.91c-1.62,2.16-.76,5.33.89,7.46s4,3.66,5.67,5.76c2.15,2.66,2.83,6.17,4.85,8.85,2.31,3.08,5.69,5.84,8.36,8.68l15.65,14.69a139.58,139.58,0,0,0,12.43,11c3.24,2.37,7.41,5.4,11.64,4.15s6.53-5.33,8.54-9.11l8.63-16.17a81,81,0,0,1-17.87-10.44c-.09.28-.19.56-.29.84-1.1,3.23-2.21,6.46-3.3,9.68-.46,1.36-.49,3.07-2.17,3.14-1.44.06-2.84-.88-4-1.69l-14-10.12c-4.21-3-11-6.23-14.19-10.28-2.12-2.66-1.73-6.82-3.54-9.93a17.46,17.46,0,0,0-9.78-7.94C594.76,204.68,591.47,204.73,589.84,206.91Z" transform="translate(-92.39 -24.68)"/><path class="cls-44" d="M760.35,201.76a1.29,1.29,0,0,1,.06-.21c-9.77-1.54-18.56-7.64-28.44-8.75-4.56-.5-9.15.1-13.73.35a42.88,42.88,0,0,1-6.8-.07l-18.57,0-15,0a22.45,22.45,0,0,0-17.87,9c-2.43,3.37-3.79,7.37-5.11,11.3-2.06,6.1-4.16,12.19-6.25,18.28a81,81,0,0,0,17.87,10.44c0-.09.09-.18.15-.27.17-.32.34-.64.52-1,2.23-4.07,4.9-8.19,6.88-12.37a186.52,186.52,0,0,1,1.21,23.49c-.38,17.56-4.52,34.75-9.15,51.74l-.36,2.47,2.36-.06h.22c18.33-.22,36.59,3.41,54.94,4.56,3.35-9.67,4.25-20.15,4.41-30.45.19-12.22-.6-24.49.79-36.62a40.3,40.3,0,0,1,3.41-13.36,19.65,19.65,0,0,1,7.15-8.21,5.48,5.48,0,0,1,1-.74c2.11-1.26,4.75-1,7.19-.76l10.61,1.16c0-.9.06-1.8.12-2.69A107.35,107.35,0,0,1,760.35,201.76Z" transform="translate(-92.39 -24.68)"/><path class="cls-45" d="M681.21,399.42A210,210,0,0,1,694.3,357c.44-1,.89-2,1.36-3.06,3.18-6.92,7.88-14.42,15.23-15.87-6.93,16.14-7.52,34.53-7.94,52.26-.07,3-.13,6.08-.2,9.13h21.63c3.4-21.91,8.5-43.76,9.85-65.61a17.38,17.38,0,0,0-4.83-8.05c-2.65-2.47-6-4-9.34-5.47a190.75,190.75,0,0,0-51.74-14c-9.72,29.95-12.5,61.45-13,93.13ZM677.8,318c7.06.75,14.17,1.22,21.27,1.4h.2a71.91,71.91,0,0,1-1.82,13.07l-.3-.07-11.06,7.38a16.43,16.43,0,0,0-1.56,1.15,72,72,0,0,0-8.7-10.08Q677,324.49,677.8,318Z" transform="translate(-92.39 -24.68)"/><path class="cls-46" d="M667.21,242.52c.33,10.58,1.64,21.19,1.59,31.8a215.36,215.36,0,0,1-2.69,29.53c4.63-17,8.77-34.18,9.15-51.74a186.52,186.52,0,0,0-1.21-23.49c-2,4.18-4.65,8.3-6.88,12.37C667.18,241.5,667.19,242,667.21,242.52Z" transform="translate(-92.39 -24.68)"/><path class="cls-47" d="M723.27,310.82c-18.35-1.15-36.61-4.78-54.94-4.56,0,0,0,0,0,0a190.75,190.75,0,0,1,51.74,14c3.33,1.43,6.69,3,9.34,5.47a17.38,17.38,0,0,1,4.83,8.05,149.71,149.71,0,0,0-.22-23.1,55.28,55.28,0,0,1-10.61.12Z" transform="translate(-92.39 -24.68)"/><path class="cls-47" d="M677.8,318q-.78,6.47-2,12.86a72,72,0,0,1,8.7,10.08,16.43,16.43,0,0,1,1.56-1.15l11.06-7.38.3.07a71.91,71.91,0,0,0,1.82-13.07h-.2C692,319.24,684.86,318.77,677.8,318Z" transform="translate(-92.39 -24.68)"/><path class="cls-48" d="M704.53,174.73c1.5.22,3,.45,4.48.64a4,4,0,0,0,1.7-.07,1.44,1.44,0,0,0,.4-.18,3.23,3.23,0,0,0,1.09-2.44,28.79,28.79,0,0,0,.32-6.35c-2.48-1.38-5.69-2-8.32-3.26-5.51-2.62-8.88-8.79-8.94-14.89s2.86-12,7.16-16.33a35.4,35.4,0,0,1,10-6.86c-2,.11-3.92.3-5.86.52-3.41.38-6.91.84-10,2.42-7.17,3.71-8.64,11.55-7.87,18.9.9,8.56,4.55,17.17,4.31,25.8l-.06,2.32C696.63,173.77,700.58,174.17,704.53,174.73Z" transform="translate(-92.39 -24.68)"/><path class="cls-46" d="M692.85,187.27c0,2,0,3.9,0,5.85l18.57,0a42.88,42.88,0,0,0,6.8.07,20.89,20.89,0,0,1-5.19-6.08c-.24-.23-.47-.45-.69-.68A78.21,78.21,0,0,1,692.85,187.27Z" transform="translate(-92.39 -24.68)"/><path class="cls-43" d="M692.94,175c-.08,4.11-.09,8.21-.09,12.32a78.21,78.21,0,0,0,19.51-.88,35.42,35.42,0,0,1-7.83-11.66C700.58,174.17,696.63,173.77,692.94,175Z" transform="translate(-92.39 -24.68)"/><path class="cls-47" d="M702.75,399.42c.07-3.05.13-6.1.2-9.13.42-17.73,1-36.12,7.94-52.26-7.35,1.45-12,9-15.23,15.87-.47,1-.92,2-1.36,3.06-.68,14.14-.7,28.31-.21,42.46Z" transform="translate(-92.39 -24.68)"/><path class="cls-49" d="M730.8,143.48a7.68,7.68,0,0,0,2,.41,5.68,5.68,0,0,0,5.36-2.39c1.18-2,.51-4.58-.63-6.59-2.83-5-8.27-8-13.86-9.26a42.32,42.32,0,0,0-11.24-.66,35.4,35.4,0,0,0-10,6.86c-4.3,4.34-7.22,10.23-7.16,16.33s3.43,12.27,8.94,14.89c2.63,1.26,5.84,1.88,8.32,3.26a9.72,9.72,0,0,0-1.48-4.51c-1.11-1.68-2.82-2.88-4-4.48a4.42,4.42,0,0,1-1-2.2,2.21,2.21,0,0,1,.93-2.12,3.25,3.25,0,0,1,2.84.18,20.89,20.89,0,0,1,4.31,2.46c1.32,1,2.93,2.19,4.43,1.53s1.7-2.59,1.27-4.08-1.35-2.83-1.6-4.37a6.06,6.06,0,0,1,2.81-5.87,7.63,7.63,0,0,1,5.83-1C728.23,142.3,729.45,143,730.8,143.48Z" transform="translate(-92.39 -24.68)"/><path class="cls-43" d="M712.52,166.33a28.79,28.79,0,0,1-.32,6.35,3.23,3.23,0,0,1-1.09,2.44,1.44,1.44,0,0,1-.4.18,14.41,14.41,0,0,0,7.11,2,14.26,14.26,0,0,0,5.48-1,7,7,0,0,0,2-1.7c1.65-2.08,1.68-4.85,1.87-7.37a14.21,14.21,0,0,1,.58-3.9c.49-1.25,1.32-1.36,2.57-1.78a3.7,3.7,0,0,0,1.9-1.22,35.84,35.84,0,0,1-1.52-11.52c.07-1.78.15-3.61.09-5.4-1.35-.46-2.57-1.18-4-1.62a7.63,7.63,0,0,0-5.83,1,6.06,6.06,0,0,0-2.81,5.87c.25,1.54,1.18,2.88,1.6,4.37s.15,3.45-1.27,4.08-3.11-.55-4.43-1.53a20.89,20.89,0,0,0-4.31-2.46,3.25,3.25,0,0,0-2.84-.18,2.21,2.21,0,0,0-.93,2.12,4.42,4.42,0,0,0,1,2.2c1.23,1.6,2.94,2.8,4,4.48A9.72,9.72,0,0,1,712.52,166.33Z" transform="translate(-92.39 -24.68)"/><path class="cls-50" d="M709,175.37c-1.48-.19-3-.42-4.48-.64a35.42,35.42,0,0,0,7.83,11.66l.3,0c-.8-1.6-1.31-3.52-.47-5.08a5.43,5.43,0,0,1,3-2.25c1.75-.65,3.6-.95,5.38-1.5a12,12,0,0,0,2.69-1.14,14.26,14.26,0,0,1-5.48,1,14.41,14.41,0,0,1-7.11-2A4,4,0,0,1,709,175.37Z" transform="translate(-92.39 -24.68)"/><path class="cls-46" d="M734,310.71a26.32,26.32,0,0,0,2.68-.47q.28-7.58.32-15.16.07-17.16-1-34.3c-.71-10.77-2.32-21.73.08-32.41.51-2.27,1.32-4.67,3-6.19a19.65,19.65,0,0,0-7.15,8.21,40.3,40.3,0,0,0-3.41,13.36c-1.39,12.13-.6,24.4-.79,36.62-.16,10.3-1.06,20.78-4.41,30.45h.13A55.28,55.28,0,0,0,734,310.71Z" transform="translate(-92.39 -24.68)"/><path class="cls-43" d="M760.35,201.76a107.35,107.35,0,0,0-2.42,17.39c14.09-.08,10.15-.17,24.55-2.44a109.53,109.53,0,0,0,29.85-8.84c4-1.9,7.28-4.56,11.25-6.39,8-3.68,14.2-9.84,16.3-18.62.83-3.49.66-7.37-1.26-10.4-1.1-1.76-3.08-3.06-5.1-1.93-2.46,1.37-2,3.86-2.87,6a1.87,1.87,0,0,1-1.57,1.24c-1.46,0-2.73-.66-4,.44s-1.9,3.4-2.32,5c-.73,2.77-1.81,5.9-4,7.85-2.36,2.11-7,3.15-10,4.23a113.6,113.6,0,0,1-25.68,5.79C769.27,202.68,772.17,202.26,760.35,201.76Z" transform="translate(-92.39 -24.68)"/><path class="cls-51" d="M728,154.23a8.13,8.13,0,0,0-2.25-.19,1.32,1.32,0,0,1,2.46-.89,1.49,1.49,0,0,1,.16,1.19Z" transform="translate(-92.39 -24.68)"/><path class="cls-52" d="M1013.9,399.42a38.4,38.4,0,0,1-9-19c-.85-5.71-.36-12.1-1.3-18-1.34.09-2.69.21-4,.37-1.56.18-3.13.38-4.67.61-2.18,10.05-4.93,19.27-7.33,27.46-.88,3-1.69,5.85-2.43,8.58Z" transform="translate(-92.39 -24.68)"/><path class="cls-39" d="M1006.21,293.08c2.53,6.52,3.81,13.69,2.43,20.54a24.62,24.62,0,0,1-6.15,11.88c-.5-5.15-1.19-10.29-2.13-15.39q-.76-4.17-1.79-8.33c-3-12.24-7.81-24.09-14.88-34.4l.06-.19c3.58,1.2,8.27,2.61,10.71,5.67A78,78,0,0,1,1006.21,293.08Z" transform="translate(-92.39 -24.68)"/><path class="cls-38" d="M995,363.11l-.5.08c-10.89,1.68-21.71,4.34-32.74,4.55a56,56,0,0,1-15.25-1.69c0,.06,0,.12,0,.19l-.18-.05a41.4,41.4,0,0,1-6-2V364l-.17-.08c0-3.49-.09-7-.19-10.47,1.28-5.09,2.8-10.14,3.88-15.28a90.28,90.28,0,0,0,.88-32C943.35,297,940.35,287.72,934,281c-5.43-5.72-12.74-9.06-20.21-11.83-2.64-2.23-5.45-3.91-8.54-6.29-6.12-4.76-11.76-11.24-16.83-17.08a115.25,115.25,0,0,1-23.57-43.4c-.35-1.2-.67-2.39-1-3.6a40.68,40.68,0,0,0,9.94-2.42c.5-.18,1-.38,1.47-.59A103.09,103.09,0,0,0,919,249.19l.18.06a93.82,93.82,0,0,0,19.33,8.91,70.58,70.58,0,0,0,8.89,2.25l1.59.28c4.51.8,9.07,1.31,13.64,2,1.41.19,2.81.4,4.21.63.92.14,1.84.3,2.75.48a102.65,102.65,0,0,1,14.07,3.62c7.07,10.31,11.85,22.16,14.88,34.4q1,4.16,1.79,8.33c.94,5.1,1.63,10.24,2.13,15.39.51,5.3.83,10.63,1,16,.25,6.95.31,13.93.33,20.9l-.25,0c-1.34.09-2.69.21-4,.37-1.56.18-3.13.38-4.67.61C994.93,363.29,994.94,363.2,995,363.11Z" transform="translate(-92.39 -24.68)"/><path class="cls-53" d="M984.46,399.42c1-2.87,2-5.73,3.12-8.58,2.4-8.19,5.15-17.41,7.33-27.46l-.1,0-.5.07c-10.91,1.65-21.73,4.28-32.76,4.46a56.28,56.28,0,0,1-15.07-1.69L948,399.42Z" transform="translate(-92.39 -24.68)"/><path class="cls-54" d="M962.52,247.63A14.68,14.68,0,0,1,964,242.8c2.34-4.67,6.54-7.84,10.74-10.53s8.65-5.15,12-9a23.48,23.48,0,0,0,5.3-12.6c.32,1.37.6,2.78.82,4.23.87,5.54,1.74,11.32.93,16.94-1,7.14-4.91,10.85-11,12.91l-16.12,5.42a11.18,11.18,0,0,1-4.1.82A14.93,14.93,0,0,1,962.52,247.63Z" transform="translate(-92.39 -24.68)"/><path class="cls-12" d="M967.6,205.58c-3.57-5.88-8.65-11.33,4.57-11.78,12.18-.43,17.44,7,19.81,16.85a23.48,23.48,0,0,1-5.3,12.6c-3.34,3.87-7.78,6.34-12,9s-8.4,5.86-10.74,10.53a14.68,14.68,0,0,0-1.43,4.83,9.94,9.94,0,0,0-1.57,3,8.55,8.55,0,0,1-3-2.39c-2.58-2.95-4.73-7-3.81-10.92a8.65,8.65,0,0,1,7.16-6.38c1.34-.21,2.72-.13,4-.44a4.2,4.2,0,0,0,3.11-2.56c.69-2.16-1.15-4.48-3.19-4.93s-4.13.38-6.08,1.21c.09-2.28,2.27-3.73,4.24-4.49,3.41-1.34,6.13-3.17,6.46-7.57C970.08,210.07,969,207.79,967.6,205.58Z" transform="translate(-92.39 -24.68)"/><path class="cls-35" d="M967.6,205.58c1.35,2.21,2.48,4.49,2.33,6.57-.33,4.4-3,6.23-6.46,7.57-2,.76-4.15,2.21-4.24,4.49,1.95-.83,4-1.66,6.08-1.21s3.88,2.77,3.19,4.93a4.2,4.2,0,0,1-3.11,2.56c-1.33.31-2.71.23-4,.44a8.65,8.65,0,0,0-7.16,6.38c-.92,3.94,1.23,8,3.81,10.92a8.55,8.55,0,0,0,3,2.39c-.06.19-.11.37-.16.56-.91,3.55.36,7.29,1.6,10.72.09.25.19.5.27.75-4.57-.65-9.13-1.16-13.64-2l-1.59-.28c-.49-3.35-1-6.69-1.48-10-.46-3.14-1-6.41-2.67-9-1.24-1.87-3-3.31-3.86-5.43a8.71,8.71,0,0,1,.27-6.17A19.62,19.62,0,0,1,943,224.6c1-1.15,3.94-3.26,3.76-4.9a5.57,5.57,0,0,1-.14-1.94,2.83,2.83,0,0,1,1.68-1.62,91.74,91.74,0,0,0,10-5.39A64.65,64.65,0,0,1,967.6,205.58Z" transform="translate(-92.39 -24.68)"/><path class="cls-39" d="M914,277.9l-.21-.19-12-10.29c-5.05-4.34-10.13-8.7-14.33-13.85-4.6-5.66-8.07-12.12-11.5-18.54-6.17-11.57-12.41-23.28-15.69-36,1.1,0,2.19-.11,3.29-.22.42,1.21.83,2.41,1.25,3.56a115.25,115.25,0,0,0,23.57,43.4c5.07,5.84,10.71,12.32,16.83,17.08,3.09,2.38,5.9,4.06,8.54,6.29C921.26,272,928.57,275.29,934,281c6.35,6.71,9.35,16,10.74,25.09a90.28,90.28,0,0,1-.88,32c-1.08,5.14-2.6,10.19-3.88,15.28-.34-13.06-1.26-26.08-4-38.85-.12-.52-.23-1-.35-1.58a110.6,110.6,0,0,0-12.74-24.92A49.65,49.65,0,0,0,914,277.9Z" transform="translate(-92.39 -24.68)"/><path class="cls-35" d="M863.88,198.81l-.28,0a33.54,33.54,0,0,0-3.5-7.66A45.66,45.66,0,0,1,855,180.14c-.92-2.66-4.07-10.64-.48-12.5,0,0-.85-7.47,3.1-6.63,0,0,1.53-5.68,4.77,1.84,0,0,2.24-2.88,4.82,5.81l2.59,8.71s2.57-5.73,6.41-7.1c1.81-.64,1.11,1.34.77,2.35-.82,2.56-2.07,4.94-2.85,7.54a29.75,29.75,0,0,0-1.28,7.72,30.06,30.06,0,0,0,1,8.51A40.68,40.68,0,0,1,863.88,198.81Z" transform="translate(-92.39 -24.68)"/><path class="cls-35" d="M875.29,195.8c-.48.21-1,.41-1.47.59a30.06,30.06,0,0,1-1-8.51C873.56,190.55,874.37,193.2,875.29,195.8Z" transform="translate(-92.39 -24.68)"/><path class="cls-41" d="M958.08,215.6a8.4,8.4,0,0,1,1.15,2,1.33,1.33,0,0,0-.26-2.62,1.49,1.49,0,0,0-1.16.37A1.86,1.86,0,0,1,958.08,215.6Z" transform="translate(-92.39 -24.68)"/><path class="cls-55" d="M783.61,282.26a176.16,176.16,0,0,0-12.47,66.89,185.34,185.34,0,0,0,1.49,21.32,105.66,105.66,0,0,0,5.18,22.34,38.4,38.4,0,0,0,7.58-.07c-5.82-10-6.84-22.42-7.11-34.18A413.08,413.08,0,0,1,783.61,282.26Z" transform="translate(-92.39 -24.68)"/><path class="cls-35" d="M780.6,399.42h10.1a4.23,4.23,0,0,1-.43-2.41l2.11,2.41h2.94c-.36-1.26-1.26-2.58-1.54-3.72a34.53,34.53,0,0,0-1.5-4.37,37,37,0,0,1-6.89,1.41,38.4,38.4,0,0,1-7.58.07c.21.58.42,1.16.65,1.74C779.1,396.2,779.83,397.82,780.6,399.42Z" transform="translate(-92.39 -24.68)"/><path class="cls-56" d="M795.91,275a25,25,0,0,0-4.82-5.08,46,46,0,0,0-6.69,10.39c-.27.65-.53,1.31-.79,2a413.08,413.08,0,0,0-5.33,76.3c.27,11.76,1.29,24.18,7.11,34.18a37,37,0,0,0,6.89-1.41,26.35,26.35,0,0,1-1.43-4.56c-.63-3.38-1.21-6.78-1.57-10.2-.16-1.43-.28-2.87-.34-4.3A126.64,126.64,0,0,1,793,333.85c.64-2.38,1.34-4.73,2.06-7.08,1.56-5.07,3.23-10.1,4.52-15.23,1.9-7.51,3-15.37,1.75-23A32.26,32.26,0,0,0,795.91,275Z" transform="translate(-92.39 -24.68)"/><path class="cls-57" d="M831.19,399.42a110.41,110.41,0,0,1,5.5-11.53q.16,5.78.47,11.53h21.67c-.14-7.7-.34-15.38-.66-23a12.14,12.14,0,0,1-4,.56l-1.61,0c-17.25,5.17-35.64,8.6-53.09,4.32a14.13,14.13,0,0,1-2-.62c0,3.23-.17,6.49-.24,9.72-.08,3-.16,6-.27,9.06Z" transform="translate(-92.39 -24.68)"/><path class="cls-55" d="M797.46,380.64a14.13,14.13,0,0,0,2,.62c17.45,4.28,35.84.85,53.09-4.32q-16.32-.18-32.62-.36c-4.8-.05-10.28-.43-13.22-4.22-1.8-2.32-2.18-5.4-2.45-8.32a287,287,0,0,1-.37-49.14c.58-7.55,1.47-15.17.35-22.66-1-6.43-3.61-12.89-8.32-17.26a32.26,32.26,0,0,1,5.45,13.54c1.26,7.65.15,15.51-1.75,23-1.29,5.13-3,10.16-4.52,15.23a213.2,213.2,0,0,0-2.72,23.62,100.73,100.73,0,0,0,2.35,28.84A13.88,13.88,0,0,0,797.46,380.64Z" transform="translate(-92.39 -24.68)"/><path class="cls-56" d="M816.81,259.15c-.08-.34-.15-.68-.21-1-5.93,2-12.65,1.93-18.18,5.7a29.21,29.21,0,0,0-7.33,6.08,25,25,0,0,1,4.82,5.08c4.71,4.37,7.37,10.83,8.32,17.26,1.12,7.49.23,15.11-.35,22.66a287,287,0,0,0,.37,49.14c.27,2.92.65,6,2.45,8.32,2.94,3.79,8.42,4.17,13.22,4.22q16.3.19,32.62.36l1.45-.44a18.43,18.43,0,0,0,4.11-1.66,7,7,0,0,0,1.94-1.66,4.44,4.44,0,0,0,.27-.38c1.58-2.38,1.1-5.5.62-8.31-1.68-9.62-2.88-19.33-3.6-29.07s-1-19.67-.72-29.5c.21-8.52.79-17,.25-25.53a77.42,77.42,0,0,0-1.06-8.85,19.29,19.29,0,0,0-2.76-4.16c-2.39-2.67-5.38-3.95-8.18-5.63a19.42,19.42,0,0,1-4-3l-.3,3.55c-.24,2.89-.38,5.85-.63,8.78-.13,1.57-.29,3.13-.52,4.68a22.44,22.44,0,0,1-13.72-3.64A21.46,21.46,0,0,1,816.81,259.15Z" transform="translate(-92.39 -24.68)"/><path class="cls-38" d="M853.84,216.16a7.85,7.85,0,0,0,5.68-2.6c3.71-5,.42-11.48-4.61-13.74-13.57-5.56-34.16-4.45-41.25,9.62-5.31,10.56,1.07,20.78,6,29.78.42,1,.84,1.94,1.23,2.91,1.53-.24,3-.54,4.53-.91a46.73,46.73,0,0,0-1.76-5.49,9.63,9.63,0,0,1-2.92-4.71c-.45-2.32,1.2-5.19,3.62-5.08,1.82.08,3.14,1.71,3.88,3.33.5,1.09.85,2.25,1.4,3.3l4.19-1.77c-2.72-4.51-4.33-12.21-.09-16.43,1-.69,2.26-2.14,3.62-2.26C842.81,212.12,848.64,216.31,853.84,216.16Z" transform="translate(-92.39 -24.68)"/><path class="cls-55" d="M819.83,256.82a15.47,15.47,0,0,1-3,2.33,21.46,21.46,0,0,0,8.91,12.93,22.44,22.44,0,0,0,13.72,3.64c.23-1.55.39-3.11.52-4.68a21,21,0,0,1-12.37-4.17,20.25,20.25,0,0,1-7.22-10.63A5.89,5.89,0,0,1,819.83,256.82Z" transform="translate(-92.39 -24.68)"/><path class="cls-35" d="M823.63,235.73c.36.37.72.72,1.08,1.07l6.16,5.88a30.65,30.65,0,0,0,6.28,5,12,12,0,0,0,4.55,1.43,8.23,8.23,0,0,0,3.31-.26,10,10,0,0,0,5.66-4.84,22.82,22.82,0,0,0,2.31-7.14,73.16,73.16,0,0,0,.86-20.73c-5.2.15-11-4-16.51-4-1.36.12-2.62,1.57-3.62,2.26-4.24,4.22-2.63,11.92.09,16.43l-4.19,1.77c-.55-1-.9-2.21-1.4-3.3-.74-1.62-2.06-3.25-3.88-3.33-2.42-.11-4.07,2.76-3.62,5.08A9.63,9.63,0,0,0,823.63,235.73Z" transform="translate(-92.39 -24.68)"/><path class="cls-58" d="M825.39,241.22c-1.49.37-3,.67-4.53.91.26.61.49,1.23.71,1.84l19.83,8.78c.09-1.2.19-2.41.3-3.62a12,12,0,0,1-4.55-1.43,30.65,30.65,0,0,1-6.28-5l-6.16-5.88c-.36-.35-.72-.7-1.08-1.07A46.73,46.73,0,0,1,825.39,241.22Z" transform="translate(-92.39 -24.68)"/><path class="cls-35" d="M840.89,258.71c.17-2,.33-4,.51-6L821.57,244a17,17,0,0,1,1.13,7.11,9.35,9.35,0,0,1-2.33,5.16,20.25,20.25,0,0,0,7.22,10.63A21,21,0,0,0,840,271c.25-2.93.39-5.89.63-8.78Z" transform="translate(-92.39 -24.68)"/><path class="cls-57" d="M852.54,376.94l1.61,0a12.14,12.14,0,0,0,4-.56c0-.52,0-1-.07-1.56A18.43,18.43,0,0,1,854,376.5Z" transform="translate(-92.39 -24.68)"/><path class="cls-55" d="M859.32,280.82a61.25,61.25,0,0,0-3.52-9.28,77.42,77.42,0,0,1,1.06,8.85c.54,8.49,0,17-.25,25.53q-.37,14.74.72,29.5a150.33,150.33,0,0,0,15.54,23.15c4.47,5.44,9.34,10.07,14,15a26.48,26.48,0,0,0,6.7,5,44.82,44.82,0,0,1,7.55-13.92,57.31,57.31,0,0,1-8.31-8c-6.42-7.93-11.81-17.46-16.38-27.6C869.63,313.85,864.54,297.25,859.32,280.82Z" transform="translate(-92.39 -24.68)"/><path class="cls-35" d="M893.61,378.58c3.4,1.86,7,3.19,10.36,4.82a33.37,33.37,0,0,0,7.35,2.64,3.12,3.12,0,0,0,3-.36c1-.92,1.34-2.91,1-4.55a11.43,11.43,0,0,0-1.93-4.27c-3.49-5.21-7.89-8.61-12.23-12.2A44.82,44.82,0,0,0,893.61,378.58Z" transform="translate(-92.39 -24.68)"/><path class="cls-41" d="M850.83,224.64a.88.88,0,0,0,1.18.42.89.89,0,1,0-.77-1.6A.88.88,0,0,0,850.83,224.64Z" transform="translate(-92.39 -24.68)"/><path class="cls-41" d="M839.61,223.86a.89.89,0,1,0,.91-.87A.89.89,0,0,0,839.61,223.86Z" transform="translate(-92.39 -24.68)"/><path class="cls-13" d="M851.42,237.44a20.14,20.14,0,0,1-11,0,7.51,7.51,0,0,0,1.78,2.34,5.52,5.52,0,0,0,5.69,1.35A6.16,6.16,0,0,0,851.42,237.44Z" transform="translate(-92.39 -24.68)"/><path class="cls-59" d="M851.75,236a17.19,17.19,0,0,1-12.11-1.57,9.61,9.61,0,0,0,.81,3,20.14,20.14,0,0,0,11,0A6.25,6.25,0,0,0,851.75,236Z" transform="translate(-92.39 -24.68)"/></svg>