<svg id="Ñëîé_1" data-name="Ñëîé 1" xmlns="http://www.w3.org/2000/svg" viewBox="0 0 624.63 216.59"><defs><style>.cls-1{fill:#d3bca6;}.cls-2{fill:#4e35c6;}.cls-3{fill:#341bac;}.cls-4{fill:#cd447e;}.cls-5{fill:#000c4e;}.cls-6{fill:#b32a64;}.cls-7{fill:#2a2a2a;}.cls-8{fill:#edd6c0;}.cls-9{fill:#dcc0af;}.cls-10{fill:#182668;}.cls-11{fill:#684fe0;}.cls-12{fill:#324082;}.cls-13{fill:#444;}.cls-14{fill:#3f4d8f;}.cls-15{fill:#2ae2ee;}.cls-16{fill:#e75e98;}.cls-17{fill:#755ced;}.cls-18{fill:#03bbc7;}.cls-19{fill:#e0c9b3;}.cls-20{fill:#1dd5e1;}.cls-21{fill:#5277e5;}.cls-22{fill:#5b42d3;}.cls-23{fill:#c6a899;}.cls-24{fill:#373737;}.cls-25{fill:#da518b;}.cls-26{fill:#e5e5e5;}.cls-27{fill:#f46ba5;}.cls-28{fill:#4b8dff;}.cls-29{fill:#fae3cd;}.cls-30{fill:#253375;}.cls-31{fill:#e0c2b3;}.cls-32{fill:#515151;}</style></defs><path class="cls-1" d="M616.15,175.68a20.4,20.4,0,0,0-7.8-11.37c-2.2.89-4.4,1.82-6.54,2.85-6.56,3.13-12.93,7.47-16.56,13.67,1,4,2.56,7.55,7.64,5.56a50.63,50.63,0,0,0,6.37-3.59c5.25-3,11.27-4.22,17.23-5.53C616.4,176.74,616.28,176.2,616.15,175.68Z" transform="translate(-142.65 -11.55)"/><path class="cls-2" d="M623.65,157.5a131.85,131.85,0,0,1-15.3,6.81,20.4,20.4,0,0,1,7.8,11.37,45.53,45.53,0,0,0,19.55-11.3c7.81-7.45,13.29-17,17.9-26.7,3.18-6.72,6-13.62,9.12-20.36-.28-.66-.58-1.32-.89-2-1.34-2.79-3.48-4.28-5.18-6.77l-1.74-.4c-.69,2.93-1.28,5.9-2.09,8.8C648.68,131.82,637.38,149.77,623.65,157.5Z" transform="translate(-142.65 -11.55)"/><path class="cls-3" d="M616.15,175.68c.13.52.25,1.06.34,1.59,1.73-.37,3.46-.76,5.17-1.2a79.86,79.86,0,0,0,47.16-34.71A81.77,81.77,0,0,0,666,126.48a75,75,0,0,0-3.26-9.16c-3.12,6.74-5.94,13.64-9.12,20.36-4.61,9.73-10.09,19.25-17.9,26.7A45.53,45.53,0,0,1,616.15,175.68Z" transform="translate(-142.65 -11.55)"/><path class="cls-4" d="M691.61,228.15a34.44,34.44,0,0,1,5.29-3.91c0,2-.08,3.14-.11,3.91H732c.09-.19.17-.41.26-.59a37.81,37.81,0,0,0-3.85-2.56,40.75,40.75,0,0,0-5.44-2.65c-9.9-3.94-20.77-4.5-31.4-5.21-8.87-.59-17.92-1.36-26.24-4.29l-1.86,5.43h0c-.82,2.49-1.63,5-2.35,7.51-.23.83-.45,1.57-.68,2.36Z" transform="translate(-142.65 -11.55)"/><path class="cls-2" d="M723.76,112.6c10.6,6.81,18.66,19.84,18.91,32.22,0,.11-.1,3.71-13.86,9.43,1.29,6.09,2.36,13,3.2,20.08a67.57,67.57,0,0,0,11.88-3.78,65.43,65.43,0,0,0,9.8-5.15c17.71-11.4,16-22.55,6.72-50.45-11.62-34.71-22.75-35.38-22.75-35.38l-19.78-5.14c0,2.52,0,5,.09,7.53a21.84,21.84,0,0,1-5.55,6.94,30.23,30.23,0,0,1-12.13,5.92,30.66,30.66,0,0,1-9.85.91q.51-9,1-18.09a18.81,18.81,0,0,1-6.72-.59,40.56,40.56,0,0,0-28.25,25.5,57.51,57.51,0,0,0-1.59,5.64l1.74.4c1.7,2.49,3.84,4,5.18,6.77.31.64.61,1.3.89,2a75,75,0,0,1,3.26,9.16,81.77,81.77,0,0,1,2.84,14.88q.38,4,.36,8c0,1.84-.09,3.66-.23,5.48l16.15,1.26s-8.77-4-7.79-6.84a61.68,61.68,0,0,1,11.63,2.29,14.63,14.63,0,0,1,6.9,4.37c1.8,2,5.43,4.42,12.41,4.08a44.79,44.79,0,0,0,12-2.54c3.32-1.13,6.16-2.2,8.57-3.2-.19-.93-.4-1.85-.6-2.75-1.82-7.83-5.37-15.9-5.54-24C722.56,122.53,723.52,117.62,723.76,112.6Z" transform="translate(-142.65 -11.55)"/><path class="cls-5" d="M678.93,29.47a6.16,6.16,0,0,0,2.39,2.73c2.78,1.62,6.29.29,9.15-1.18,5.19-2.66,10.33-2.42,16.07-2.37l14.42.12h.28s.14-16.38-21.34-17.2c-9-.34-24.11,3.67-21.65,15.81A9.28,9.28,0,0,0,678.93,29.47Z" transform="translate(-142.65 -11.55)"/><path class="cls-2" d="M666.6,209.26c17.59,3.57,35.63,5.88,53.47,5a76.56,76.56,0,0,0,14.43-1.61A366.33,366.33,0,0,0,732,174.33a71.42,71.42,0,0,1-10.63,1.51c-4,.27-8.57.43-13.3.32a91.88,91.88,0,0,1-20.4-2.54L676,169.7s-5.33-1.89-7.61-9.58c-.7,5.57-1.79,11.09-2.81,16.59-1.51,8-2.65,21.41-3.38,31.64C663.68,208.66,665.14,209,666.6,209.26Z" transform="translate(-142.65 -11.55)"/><path class="cls-6" d="M733.06,222.84c.08-.09.15-.19.22-.28,1.14-1.63,1.22-3.74,1.23-5.71,0-1.35,0-2.74,0-4.16a76.56,76.56,0,0,1-14.43,1.61c-17.84.84-35.88-1.47-53.47-5-.4,1.19-.81,2.39-1.23,3.59,8.32,2.93,17.37,3.7,26.24,4.29,10.63.71,21.5,1.27,31.4,5.21a40.75,40.75,0,0,1,5.44,2.65l.57-.93A3.86,3.86,0,0,0,733.06,222.84Z" transform="translate(-142.65 -11.55)"/><path class="cls-1" d="M674,47.09a2.9,2.9,0,0,0,1.25,1.73c1.29.79,3.23.65,4,2a2.79,2.79,0,0,1,.31,1.37,41.53,41.53,0,0,0,9.57.5c4.5-.39,9-2.08,12-5.48,2.35-2.73,3.44-6.24,4.14-9.81a25.91,25.91,0,0,1-6.31-3A13.3,13.3,0,0,1,694,28.54h-.31c-2.65,2.65-7.32,3.73-12.13,4A79.52,79.52,0,0,1,674,47.09Z" transform="translate(-142.65 -11.55)"/><path class="cls-5" d="M684.75,77.05a18.81,18.81,0,0,0,6.72.59l1.88-.14a14.84,14.84,0,0,0,9.23-3.88c2.66-2.68,3.69-6.59,3.93-10.35s-.21-7.55,0-11.32c.1-1.88.39-4.47,1.69-6,.83-1,2-.92,3.18-.71a3.41,3.41,0,0,1,2.17,1.22c.83,1.12.58,2.7.06,4-.67,1.64-1.69,3.11-2.47,4.69a9,9,0,0,0-1.09,4,40.37,40.37,0,0,0,8.37-.18l1.43-.2q.61-10,1.23-20a45.15,45.15,0,0,0-.13-10l-27-.23a13.3,13.3,0,0,0,4.94,5.83,25.91,25.91,0,0,0,6.31,3c-.7,3.57-1.79,7.08-4.14,9.81-2.93,3.4-7.48,5.09-12,5.48a41.53,41.53,0,0,1-9.57-.5c0,.94-.28,2-.32,2.84a60.15,60.15,0,0,1-.49,6.27,28.39,28.39,0,0,0-.45,7.85A9.33,9.33,0,0,0,682,75.78,10.41,10.41,0,0,0,684.75,77.05Z" transform="translate(-142.65 -11.55)"/><path class="cls-1" d="M717.88,74.43c0-5.14.2-10.29.55-15.42a40.37,40.37,0,0,1-8.37.18,9,9,0,0,1,1.09-4c.78-1.58,1.8-3,2.47-4.69.52-1.29.77-2.87-.06-4a3.41,3.41,0,0,0-2.17-1.22c-1.2-.21-2.35-.25-3.18.71-1.3,1.52-1.59,4.11-1.69,6-.22,3.77.23,7.55,0,11.32s-1.27,7.67-3.93,10.35a14.84,14.84,0,0,1-9.23,3.88l-1.88.14q-.51,9-1,18.09a30.66,30.66,0,0,0,9.85-.91,30.23,30.23,0,0,0,12.13-5.92A21.84,21.84,0,0,0,718,82C717.89,79.45,717.87,77,717.88,74.43Z" transform="translate(-142.65 -11.55)"/><path class="cls-2" d="M708.08,176.16c4.73.11,9.27,0,13.3-.32A71.42,71.42,0,0,0,732,174.33c-.84-7.12-1.91-14-3.2-20.08-2.41,1-5.25,2.07-8.57,3.2a44.79,44.79,0,0,1-12,2.54A29.34,29.34,0,0,1,708.08,176.16Z" transform="translate(-142.65 -11.55)"/><path class="cls-3" d="M723.76,112.6c-.24,5-1.2,9.93-1.09,14.92.17,8.08,3.72,16.15,5.54,24,.2.9.41,1.82.6,2.75,13.76-5.72,13.86-9.32,13.86-9.43C742.42,132.44,734.36,119.41,723.76,112.6Z" transform="translate(-142.65 -11.55)"/><path class="cls-6" d="M729,224.07l-.57.93a37.81,37.81,0,0,1,3.85,2.56q.66-1.51,1.29-2.88c-.16-.61-.34-1.22-.53-1.84A3.86,3.86,0,0,1,729,224.07Z" transform="translate(-142.65 -11.55)"/><path class="cls-3" d="M739.39,211.1a28.06,28.06,0,0,0,2.53-1.22,219,219,0,0,0,2-39.33A67.57,67.57,0,0,1,732,174.33a366.33,366.33,0,0,1,2.49,38.36l.15,0A30.88,30.88,0,0,0,739.39,211.1Z" transform="translate(-142.65 -11.55)"/><path class="cls-6" d="M734.14,226.92c.09.41.15.82.23,1.23h2.89a79.5,79.5,0,0,0,2.13-17.05,30.88,30.88,0,0,1-4.74,1.55l-.15,0c0,1.42,0,2.81,0,4.16,0,2-.09,4.08-1.23,5.71-.07.09-.14.19-.22.28.19.62.37,1.23.53,1.84S734,226.18,734.14,226.92Z" transform="translate(-142.65 -11.55)"/><path class="cls-7" d="M689,40.71a7.68,7.68,0,0,0-2.14-.05,1.28,1.28,0,0,1,.47-1.34,1.3,1.3,0,0,1,1.81.36,1.44,1.44,0,0,1,.22,1.11Z" transform="translate(-142.65 -11.55)"/><path class="cls-8" d="M633.45,154.4c3.32,7.14-6,5.36-6,5.36-.67,5.37-7.3,1.07-7.3,1.07-7,5.73-18.05-6.84-18.05-6.84l-.78.68a10.84,10.84,0,0,1-.8-.87c-2-2.52-2.34-6.25-1.56-9.49a18.25,18.25,0,0,1,.86-2.62c1.55-1,2.43-1.6,2.43-1.6s25.2-8.23,20.88-3.58a20.34,20.34,0,0,1-10.27,5.72c1.32,3.94,4.31,3.58,12.93,5.73S633.45,154.4,633.45,154.4Z" transform="translate(-142.65 -11.55)"/><path class="cls-9" d="M600.56,153.8a10.84,10.84,0,0,0,.8.87c-11.55,9.83-27.4,12.9-27.4,12.9h-.56a39.19,39.19,0,0,0,18.75-21.74h0c1.9-.87,3.62-1.78,5.07-2.59,1-.57,1.91-1.1,2.64-1.55a18.25,18.25,0,0,0-.86,2.62C598.22,147.55,598.53,151.28,600.56,153.8Z" transform="translate(-142.65 -11.55)"/><path class="cls-8" d="M592.15,145.83a39.19,39.19,0,0,1-18.75,21.74,44.7,44.7,0,0,1-4.71-.17c-14.9-1.26-22.35-9.41-26-16.44.17-1.21.33-2.4.49-3.55a30.74,30.74,0,0,0,13.5-6.19C565.67,154.22,582.08,150.47,592.15,145.83Z" transform="translate(-142.65 -11.55)"/><path class="cls-2" d="M556.65,141.22a30.74,30.74,0,0,1-13.5,6.19c.89-6.3,1.73-11.54,2.32-15a92,92,0,0,1,9.41-13.59,64.33,64.33,0,0,1,6,17.66A17.83,17.83,0,0,1,556.65,141.22Z" transform="translate(-142.65 -11.55)"/><path class="cls-10" d="M542.2,45.44a11.94,11.94,0,0,0-7.36,4.68c.5-.71-3.86-3.16-4.36-3.36a11.16,11.16,0,0,0-6-.61c-4.8.85-7,4.64-6.33,9.42a24.83,24.83,0,0,0,3.27,8.26c-1.19.05-2.31.86-3.28.52.17-1.12-2.27-2.12-3.25-2.42-1.73-.53-3.86.44-3.41,2.68a3.84,3.84,0,0,0,1.75,2.11c1.59,1.16,3,1.94,3.85,3.65A37.32,37.32,0,0,1,519.64,77c-.5.17-1,.33-1.51.51a8.32,8.32,0,0,0-2.42-4.1l-2,.65a14.14,14.14,0,0,0-4.38-3.79c-3.07-1.78-6.58-3-8.86-5.77s-2.42-7.65.77-9.18c-3-2.11-3.68-6.48-2.47-9.93s4-6.15,6.81-8.44a61.28,61.28,0,0,1,28.15-12.7c-.33,2.42-.67,4.83-1,7.25a61.49,61.49,0,0,0,13.7-6.82,17.18,17.18,0,0,1-1.08,7.84l3.6-2.63c4.09,6.77,2.84,14.62-1.19,21a12.07,12.07,0,0,0-1.64,6A39.28,39.28,0,0,0,542.2,45.44Z" transform="translate(-142.65 -11.55)"/><path class="cls-8" d="M537,87.07a14.83,14.83,0,0,1-2.31,0,21.14,21.14,0,0,1-3.8-.76c-3.86-2.28-7.7-4.57-11.56-6.84a3.68,3.68,0,0,0-1-.46,11.34,11.34,0,0,0-.2-1.14c0-.1-.05-.19-.08-.29.5-.18,1-.34,1.51-.51a37.32,37.32,0,0,0-2.58-6.66c-.89-1.71-2.26-2.49-3.85-3.65a3.84,3.84,0,0,1-1.75-2.11c-.45-2.24,1.68-3.21,3.41-2.68,1,.3,3.42,1.3,3.25,2.42,1,.34,2.09-.47,3.28-.52a24.83,24.83,0,0,1-3.27-8.26c-.69-4.78,1.53-8.57,6.33-9.42a11.16,11.16,0,0,1,6,.61c.5.2,4.86,2.65,4.36,3.36a11.94,11.94,0,0,1,7.36-4.68,39.28,39.28,0,0,1,3.92,11.46c-.24,5.27,1.56,11.42,1.36,16.45-.16,4.07-.87,8.51-3.9,11.23A10.61,10.61,0,0,1,537,87.07Z" transform="translate(-142.65 -11.55)"/><path class="cls-11" d="M496,123.57A60.84,60.84,0,0,0,487,148q-1.14-.27-2.28-.57a69.47,69.47,0,0,1-16.11-6.64l-.51-.29A10.54,10.54,0,0,1,466,138.9a5.38,5.38,0,0,1-1.21-1.65c-1.08-2.35-.18-5.15.72-7.58,6.47-17.43,14.48-35.38,34.32-36.56,2.24-.14,4.49,0,6.74-.06H507c-.06,4.95-.05,10,1.47,14.68,1.57,4.85,5.14,9.28,9.84,10.19,3.44.66,7-.66,9.94-2.69a25,25,0,0,0,9.41-13.37l.13-.43c4.9,2.37,11.82,7.32,17.1,17.43a92,92,0,0,0-9.41,13.59c-.59,3.43-1.43,8.67-2.32,15-.16,1.15-.32,2.34-.49,3.55a.78.78,0,0,1,0,.14c-1.82,13.55-3.64,31-3.64,46.51h-1c0,4.33-.28,11.88-.75,21.5a98,98,0,0,1-22.14,6.13c.06-.4.13-.81.19-1.21a.08.08,0,0,0,0,0,59.48,59.48,0,0,1,1.25-6.79,22.31,22.31,0,0,0,.8-9.23,15.17,15.17,0,0,0-1.32-4.41c-.16-.34-.32-.66-.51-1a12.15,12.15,0,0,0-2.71-3.28c-1.18-1-2.32-1.39-3.26-2.63-.41-.52-.82-1-1.24-1.53h0c-.5-.59-1-1.15-1.5-1.73-4.89-5.5-10.14-10.62-14.91-16.25-.7-.84-1.36-1.7-1.95-2.57C490.22,157.89,493.21,140.21,496,123.57Z" transform="translate(-142.65 -11.55)"/><path class="cls-11" d="M539,197.61a124.09,124.09,0,0,0,1.4,20.09s-1.1.57-3.11,1.41c.47-9.62.75-17.17.75-21.5Z" transform="translate(-142.65 -11.55)"/><path class="cls-9" d="M530.93,86.27a21.14,21.14,0,0,0,3.8.76,14.83,14.83,0,0,0,2.31,0l-.13.47-1.65,5.74L534.48,96q-4.8-2.43-9.63-4.84a22.65,22.65,0,0,1-5.62-3.59,10.48,10.48,0,0,1-1.55-1.89c.12-.39.22-.78.31-1.17a17.68,17.68,0,0,0,.51-4.2c0-.44,0-.87-.09-1.3a3.68,3.68,0,0,1,1,.46C523.23,81.7,527.07,84,530.93,86.27Z" transform="translate(-142.65 -11.55)"/><path class="cls-2" d="M535,100.27c.68.44,1.6,1,2.7,1.58a25,25,0,0,1-9.41,13.37c-2.94,2-6.5,3.35-9.94,2.69-4.7-.91-8.27-5.34-9.84-10.19C506.94,103.05,506.93,98,507,93h-.47c.69,0,1.37-.06,2.05-.12a17.83,17.83,0,0,0,2.51-.4,27,27,0,0,0,4,15.24C521.77,118.28,531,108.31,535,100.27Z" transform="translate(-142.65 -11.55)"/><path class="cls-8" d="M534.61,100.06l.34.21c-3.91,8-13.18,18-19.84,7.49a27,27,0,0,1-4-15.24c3.24-.77,5.26-2.55,6.47-6.43,0-.15.1-.3.13-.45a10.48,10.48,0,0,0,1.55,1.89,22.65,22.65,0,0,0,5.62,3.59q4.83,2.41,9.63,4.84l-1,3.36S533.9,99.6,534.61,100.06Z" transform="translate(-142.65 -11.55)"/><path class="cls-12" d="M536.83,228.15c.17-3.17.32-6.2.46-9a98,98,0,0,1-22.14,6.13c-.13,1-.21,1.95-.27,2.91Z" transform="translate(-142.65 -11.55)"/><path class="cls-10" d="M518.13,77.54l-3,1a6.72,6.72,0,0,0-1.38-4.47l2-.65A8.32,8.32,0,0,1,518.13,77.54Z" transform="translate(-142.65 -11.55)"/><path class="cls-8" d="M498.88,220.66a7.22,7.22,0,0,1-6.75.34,1.33,1.33,0,0,1-.18-2.18,30.32,30.32,0,0,0,5.29-5.37,20.63,20.63,0,0,0,1.83-3.79c.35-.85.73-1.74,1.17-2.6a13.2,13.2,0,0,1,1.09-1.85,7.19,7.19,0,0,1,4-3c.36-.1,1.52-.44,2.34-.63a8,8,0,0,1,4.21,3.19,5.17,5.17,0,0,1,4.18-1.24A15.17,15.17,0,0,1,517.4,208a22.31,22.31,0,0,1-.8,9.23,59.48,59.48,0,0,0-1.25,6.79.08.08,0,0,1,0,0,33.21,33.21,0,0,1-4-1.09,33.74,33.74,0,0,1-3.78-1.56,33,33,0,0,1-3.19-1.76c-.71-.44-1.41-.9-2.09-1.4A15.57,15.57,0,0,1,498.88,220.66Z" transform="translate(-142.65 -11.55)"/><path class="cls-9" d="M488.65,195.75c-2.36-2.42-5.07-5.23-8.16-8.49l.79.29c4.45,1.67,9.15,2.28,13.76,3.32a78.76,78.76,0,0,1,13.32,4.25h0c.42.5.83,1,1.24,1.53.94,1.24,2.08,1.65,3.26,2.63a12.15,12.15,0,0,1,2.71,3.28c.19.33.35.65.51,1a5.17,5.17,0,0,0-4.18,1.24,8,8,0,0,0-4.21-3.19c-.82.19-2,.53-2.34.63a7.19,7.19,0,0,0-4,3,13.2,13.2,0,0,0-1.09,1.85C497.84,204.88,494.16,201.36,488.65,195.75Z" transform="translate(-142.65 -11.55)"/><path class="cls-8" d="M490,174.57c.59.87,1.25,1.73,1.95,2.57,4.77,5.63,10,10.75,14.91,16.25.5.58,1,1.14,1.5,1.73A78.76,78.76,0,0,0,495,190.87c-4.61-1-9.31-1.65-13.76-3.32l-.79-.29-1.75-1.85a43.13,43.13,0,0,1-8.95-14.25c-4.38-11.48-3.31-23.15-1.72-30.7l.51.29a69.47,69.47,0,0,0,16.11,6.64C483.78,154.55,483.83,165.46,490,174.57Z" transform="translate(-142.65 -11.55)"/><path class="cls-10" d="M499.53,228.15c-.09-.57-.17-1.17-.25-1.81a85.24,85.24,0,0,1-9.13-.65c-1.12-.14-2.26-.31-3.39-.5a149.31,149.31,0,0,1-21.1-5.62l-2.4,8.58Z" transform="translate(-142.65 -11.55)"/><path class="cls-11" d="M488.65,195.75c5.51,5.61,9.19,9.13,11.59,11.31-.44.86-.82,1.75-1.17,2.6a20.63,20.63,0,0,1-1.83,3.79,30.32,30.32,0,0,1-5.29,5.37,1.33,1.33,0,0,0,.18,2.18,7.22,7.22,0,0,0,6.75-.34,50.62,50.62,0,0,0,.4,5.69,88,88,0,0,1-9.13-.66c-1.12-.14-2.26-.31-3.39-.5C487.14,216.36,487.82,207,488.65,195.75Z" transform="translate(-142.65 -11.55)"/><path class="cls-2" d="M487,148A60.84,60.84,0,0,1,496,123.57c-2.83,16.64-5.82,34.32-6,51-6.17-9.11-6.22-20-5.31-27.18Q485.83,147.69,487,148Z" transform="translate(-142.65 -11.55)"/><path class="cls-2" d="M465.66,219.57c-1.48-.53-2.83-1-4-1.56a314.07,314.07,0,0,0,7.17-38.17l1.41.15c2.18,4.16,6.08,5.72,10.24,7.27,3.09,3.26,5.8,6.07,8.16,8.49-.83,11.22-1.51,20.61-1.89,29.44A149.31,149.31,0,0,1,465.66,219.57Z" transform="translate(-142.65 -11.55)"/><path class="cls-2" d="M478.74,185.41l1.75,1.85c-4.16-1.55-8.06-3.11-10.24-7.27l-1.41-.15c.11-1,.2-1.9.3-2.84.19-2,.4-3.95.65-5.84A43.13,43.13,0,0,0,478.74,185.41Z" transform="translate(-142.65 -11.55)"/><path class="cls-13" d="M530.71,60.76a1.12,1.12,0,0,1-1.44.41.91.91,0,0,1-.41-1.31,1.14,1.14,0,0,1,1.45-.41A.91.91,0,0,1,530.71,60.76Z" transform="translate(-142.65 -11.55)"/><path class="cls-13" d="M542.07,59.26a1.05,1.05,0,0,1-1.1,1,1,1,0,0,1-1-1,1.06,1.06,0,0,1,1.11-1A1,1,0,0,1,542.07,59.26Z" transform="translate(-142.65 -11.55)"/><polygon class="cls-14" points="446.03 216.59 439.32 188.16 439.17 187.5 410.07 216.59 446.03 216.59"/><path class="cls-15" d="M552.73,228.15l29.1-29.1L526.77,144a78,78,0,0,0-17.24,84.16Z" transform="translate(-142.65 -11.55)"/><path class="cls-16" d="M526.77,144l55.06,55.06.41-.41L598.65,123A77.83,77.83,0,0,0,526.77,144Z" transform="translate(-142.65 -11.55)"/><path class="cls-15" d="M598.65,123l-16.41,75.61L636.92,144A77.34,77.34,0,0,0,598.65,123Z" transform="translate(-142.65 -11.55)"/><path class="cls-17" d="M654.21,228.15A78,78,0,0,0,637,144l-.08-.08-54.68,54.69-.15.67-.11.41,6.71,28.43Z" transform="translate(-142.65 -11.55)"/><path class="cls-18" d="M318.89,111a176.08,176.08,0,0,0-12.48,66.88,190.11,190.11,0,0,0,1.49,21.33,106.82,106.82,0,0,0,5.18,22.33,38.4,38.4,0,0,0,7.58-.06c-5.82-10-6.84-22.43-7.11-34.18A413.84,413.84,0,0,1,318.89,111Z" transform="translate(-142.65 -11.55)"/><path class="cls-19" d="M315.88,228.15H326a4.36,4.36,0,0,1-.43-2.4l2.12,2.4h2.93c-.36-1.25-1.26-2.58-1.53-3.72a34.53,34.53,0,0,0-1.5-4.37,37.74,37.74,0,0,1-6.9,1.42,39.18,39.18,0,0,1-7.58.06c.21.58.43,1.16.65,1.74Q314.71,225.76,315.88,228.15Z" transform="translate(-142.65 -11.55)"/><path class="cls-20" d="M331.19,103.71a25.24,25.24,0,0,0-4.82-5.08,46,46,0,0,0-6.7,10.39q-.41,1-.78,2a413.84,413.84,0,0,0-5.34,76.3c.27,11.75,1.29,24.17,7.11,34.18a37.74,37.74,0,0,0,6.9-1.42,24.49,24.49,0,0,1-1.43-4.56c-.63-3.38-1.21-6.78-1.58-10.2-.15-1.43-.27-2.86-.34-4.3a126.68,126.68,0,0,1,4.1-38.42q1-3.56,2.06-7.08c1.56-5.06,3.22-10.09,4.52-15.22,1.9-7.52,3-15.38,1.75-23A32.31,32.31,0,0,0,331.19,103.71Z" transform="translate(-142.65 -11.55)"/><path class="cls-21" d="M366.46,228.15A110.49,110.49,0,0,1,372,216.62c.1,3.85.27,7.69.46,11.53H394.1c-.14-7.7-.34-15.38-.66-23a11.59,11.59,0,0,1-4,.56h-1.62c-17.25,5.16-35.63,8.59-53.09,4.32a15.9,15.9,0,0,1-2-.63c0,3.24-.18,6.5-.25,9.72q-.11,4.53-.26,9.06Z" transform="translate(-142.65 -11.55)"/><path class="cls-18" d="M332.74,209.37a15.9,15.9,0,0,0,2,.63c17.46,4.27,35.84.84,53.09-4.32l-32.62-.37c-4.8-.05-10.28-.42-13.22-4.21-1.8-2.32-2.17-5.41-2.45-8.33a289,289,0,0,1-.37-49.14c.59-7.55,1.47-15.17.36-22.66-.95-6.43-3.61-12.89-8.32-17.26a32.31,32.31,0,0,1,5.45,13.54c1.25,7.65.15,15.51-1.75,23-1.3,5.13-3,10.16-4.52,15.22a211.13,211.13,0,0,0-2.73,23.62A100.83,100.83,0,0,0,330,208,14.12,14.12,0,0,0,332.74,209.37Z" transform="translate(-142.65 -11.55)"/><path class="cls-20" d="M352.08,87.88c-.08-.34-.14-.68-.2-1-5.94,2-12.66,1.93-18.19,5.7a29.16,29.16,0,0,0-7.32,6.08,25.24,25.24,0,0,1,4.82,5.08c4.71,4.37,7.37,10.83,8.32,17.26,1.11,7.49.23,15.11-.36,22.66a289,289,0,0,0,.37,49.14c.28,2.92.65,6,2.45,8.33,2.94,3.79,8.42,4.16,13.22,4.21l32.62.37,1.45-.44a19,19,0,0,0,4.12-1.66,7.22,7.22,0,0,0,1.94-1.67l.27-.38c1.57-2.38,1.1-5.5.61-8.3q-2.51-14.44-3.59-29.08t-.73-29.5c.21-8.51.79-17,.25-25.53a77.4,77.4,0,0,0-1.05-8.85,19.57,19.57,0,0,0-2.77-4.16c-2.38-2.67-5.38-4-8.17-5.63a19.48,19.48,0,0,1-4-3c-.1,1.18-.19,2.37-.29,3.55-.25,2.89-.39,5.85-.63,8.79-.13,1.56-.29,3.13-.53,4.67A22.36,22.36,0,0,1,361,100.81,21.41,21.41,0,0,1,352.08,87.88Z" transform="translate(-142.65 -11.55)"/><path class="cls-22" d="M389.12,44.89a7.89,7.89,0,0,0,5.68-2.59c3.71-5,.41-11.48-4.61-13.74C376.61,23,356,24.1,348.94,38.17,343.62,48.73,350,59,354.9,68c.43,1,.85,1.94,1.24,2.91,1.52-.23,3-.54,4.53-.91a49.93,49.93,0,0,0-1.76-5.48A9.6,9.6,0,0,1,356,59.76c-.46-2.33,1.19-5.19,3.61-5.08,1.82.08,3.15,1.7,3.89,3.32.49,1.09.85,2.26,1.4,3.31l4.19-1.78c-2.73-4.51-4.33-12.2-.1-16.43,1-.69,2.26-2.14,3.63-2.26C378.08,40.85,383.91,45,389.12,44.89Z" transform="translate(-142.65 -11.55)"/><path class="cls-18" d="M355.1,85.56a15.22,15.22,0,0,1-3,2.32A21.41,21.41,0,0,0,361,100.81a22.36,22.36,0,0,0,13.71,3.64c.24-1.54.4-3.11.53-4.67a21.05,21.05,0,0,1-12.37-4.18A20.2,20.2,0,0,1,355.65,85C355.48,85.17,355.29,85.37,355.1,85.56Z" transform="translate(-142.65 -11.55)"/><path class="cls-19" d="M358.91,64.47c.35.37.72.71,1.08,1.06l6.15,5.88a30.32,30.32,0,0,0,6.28,5A12.05,12.05,0,0,0,377,77.87a8.37,8.37,0,0,0,3.3-.27A10.07,10.07,0,0,0,386,72.77a22.68,22.68,0,0,0,2.3-7.15,73.54,73.54,0,0,0,.87-20.73c-5.21.15-11-4-16.51-4C371.24,41,370,42.41,369,43.1c-4.23,4.23-2.63,11.92.1,16.43l-4.19,1.78c-.55-1.05-.91-2.22-1.4-3.31-.74-1.62-2.07-3.24-3.89-3.32-2.42-.11-4.07,2.75-3.61,5.08A9.6,9.6,0,0,0,358.91,64.47Z" transform="translate(-142.65 -11.55)"/><path class="cls-23" d="M360.67,70c-1.49.37-3,.68-4.53.91.25.62.49,1.23.7,1.85l19.83,8.77c.1-1.2.2-2.41.31-3.61a12.05,12.05,0,0,1-4.56-1.44,30.32,30.32,0,0,1-6.28-5L360,65.53c-.36-.35-.73-.69-1.08-1.06A49.93,49.93,0,0,1,360.67,70Z" transform="translate(-142.65 -11.55)"/><path class="cls-19" d="M376.16,87.44l.51-6-19.83-8.77a16.92,16.92,0,0,1,1.13,7.1A9.31,9.31,0,0,1,355.65,85a20.2,20.2,0,0,0,7.22,10.63,21.05,21.05,0,0,0,12.37,4.18c.24-2.94.38-5.9.63-8.79C376,89.81,376.06,88.62,376.16,87.44Z" transform="translate(-142.65 -11.55)"/><path class="cls-21" d="M387.81,205.68h1.62a11.62,11.62,0,0,0,4-.56c0-.52,0-1-.06-1.55a19,19,0,0,1-4.12,1.66Z" transform="translate(-142.65 -11.55)"/><path class="cls-18" d="M394.59,109.55a62.74,62.74,0,0,0-3.51-9.28,77.4,77.4,0,0,1,1.05,8.85c.54,8.49,0,17-.25,25.53q-.37,14.76.73,29.5a149.85,149.85,0,0,0,15.54,23.15c4.46,5.44,9.33,10.07,14,15a26.3,26.3,0,0,0,6.69,5,45.08,45.08,0,0,1,7.55-13.93,56.24,56.24,0,0,1-8.3-8c-6.43-7.93-11.81-17.45-16.38-27.6C404.91,142.58,399.81,126,394.59,109.55Z" transform="translate(-142.65 -11.55)"/><path class="cls-19" d="M428.88,207.32c3.4,1.85,7,3.18,10.37,4.81a32.69,32.69,0,0,0,7.35,2.64,3.1,3.1,0,0,0,3-.36c1-.91,1.34-2.91,1-4.55a11.47,11.47,0,0,0-1.94-4.26c-3.48-5.21-7.88-8.61-12.23-12.21A45.08,45.08,0,0,0,428.88,207.32Z" transform="translate(-142.65 -11.55)"/><path class="cls-24" d="M386.1,53.38a.89.89,0,1,0,.42-1.19A.89.89,0,0,0,386.1,53.38Z" transform="translate(-142.65 -11.55)"/><path class="cls-24" d="M374.88,52.59a.89.89,0,1,0,.91-.87A.89.89,0,0,0,374.88,52.59Z" transform="translate(-142.65 -11.55)"/><path class="cls-25" d="M386.69,66.17a20.14,20.14,0,0,1-11,0,7.86,7.86,0,0,0,1.79,2.35,5.51,5.51,0,0,0,5.69,1.34A6.15,6.15,0,0,0,386.69,66.17Z" transform="translate(-142.65 -11.55)"/><path class="cls-26" d="M387,64.73a17.28,17.28,0,0,1-12.12-1.58,10.18,10.18,0,0,0,.81,3,20.14,20.14,0,0,0,11,0A6.3,6.3,0,0,0,387,64.73Z" transform="translate(-142.65 -11.55)"/><path class="cls-27" d="M282,129.57c4,5.88,1.33,7.73-.25,15.27-1.09,5.17,3.46,14.12-.37,17.86a103.53,103.53,0,0,1-13.93,11.16,14.92,14.92,0,0,1,1.73-10.75c1.7-2.86,4.39-5.24,5.2-8.44.85-3.4-.62-6.91-2.13-10.09-.89-1.89-1.82-3.77-2.76-5.64-1.63-3.23-3.34-6.44-5.1-9.61-.05-.32-.12-.64-.19-1,3.34-2.58,7.47-4.46,10.38-7.63.18-.19.36-.39.53-.59C277.56,123.2,279.83,126.35,282,129.57Z" transform="translate(-142.65 -11.55)"/><path class="cls-28" d="M280.66,98.59a1.49,1.49,0,0,1,0,1.24,52.31,52.31,0,0,1-3.12,8.51h0a72.79,72.79,0,0,0-7.81,4.12c-.15.12-.41.34-.76.61-2.15,1.67-7.43,5.47-7.4,1.94a3.93,3.93,0,0,1,.65-1.81c.53-.91,1.07-2.14.33-2.89a1.73,1.73,0,0,0-.21-.17c.36-.79.7-1.59,1-2.41.52-1.28,1-2.58,1.44-3.89.83-2.46,1.45-5.82,4.68-6.07,1.74-.13,3.47.12,5.22.11a32.4,32.4,0,0,1,4.82.21A1.56,1.56,0,0,1,280.66,98.59Z" transform="translate(-142.65 -11.55)"/><path class="cls-29" d="M277.56,108.34h0c1.35-.61,2.32-1,2.33-.72.3,4.56-1.74,9-4.77,12.53-.17.2-.35.4-.53.59-2.91,3.17-7,5.05-10.38,7.63a18,18,0,0,0-2.93,2.79l-1.08,1.37a20.13,20.13,0,0,0-7.79-7.51,8.17,8.17,0,0,0,1.5-2.26c.83-2,1.92-3.86,2.76-5.79s1.24-3.9,2.68-5.7a4.14,4.14,0,0,1,1.43-1.2,1.77,1.77,0,0,1,1.57.07,1.73,1.73,0,0,1,.21.17c.74.75.2,2-.33,2.89a3.93,3.93,0,0,0-.65,1.81c0,3.53,5.25-.27,7.4-1.94.35-.27.61-.49.76-.61A72.79,72.79,0,0,1,277.56,108.34Z" transform="translate(-142.65 -11.55)"/><path class="cls-25" d="M272.27,144.58c1.51,3.18,3,6.69,2.13,10.09-.81,3.2-3.5,5.58-5.2,8.44a14.92,14.92,0,0,0-1.73,10.75l-2,1.36c-.06-.55-.14-1.08-.23-1.62-.35-2.23-1.51-4.18-1.89-6.46a40.12,40.12,0,0,1-.45-7.66l2.36-4.24a15.06,15.06,0,0,0,2-4.92c.38-2.8-.9-5.47-2.46-7.93a39.43,39.43,0,0,1,4.68-3.41l.08,0C270.45,140.81,271.38,142.69,272.27,144.58Z" transform="translate(-142.65 -11.55)"/><path class="cls-25" d="M269.51,138.94l-.08,0a39.43,39.43,0,0,0-4.68,3.41.62.62,0,0,0-.11-.17h0c.13-1.33.23-2.65.28-4a39.53,39.53,0,0,0-.51-8.9C266.17,132.5,267.88,135.71,269.51,138.94Z" transform="translate(-142.65 -11.55)"/><path class="cls-27" d="M265.44,199.29h0c-.1.26-.2.52-.32.78-1.8,3.95-5.32,4.12-9.37,4.65-4.33.56-8.7.67-13.06.89a88,88,0,0,0-14.59,2.25c-5.78,1.34-11.48,3.48-17.15,5.21-3.74,1.13-8.41,1.93-11.61,0a6.93,6.93,0,0,1-2.89-3.59c-2.66-6.84,1.14-13.33,2.51-19.92a79.28,79.28,0,0,0,1-21.8L200,167c1.46,2.06,3,4.06,4.68,6,3.69,4.24,8.55,8.35,14.24,8.09a13.68,13.68,0,0,0,2.12-.29h0c3-1.54,6-3.1,8.85-4.78a70.75,70.75,0,0,0,11.93-8.47c8.43-7.57,14.29-17.81,22.85-25.05-.54,5.41-1.51,10.84-1.73,16.16,0,.27,0,.54,0,.81a40.12,40.12,0,0,0,.45,7.66c.38,2.28,1.54,4.23,1.89,6.46.09.54.17,1.07.23,1.62a139.55,139.55,0,0,1,.74,17.46A20.36,20.36,0,0,1,265.44,199.29Z" transform="translate(-142.65 -11.55)"/><path class="cls-30" d="M265.44,199.3c0,2.11,0,4.22-.05,6.31a38.26,38.26,0,0,1-19,8.35c-6.48.9-13.09.14-19.61.71-4.09.36-17.43,5.56-26.56,9.33-.23-3.73-.52-7.53-.84-10.95,3.2,2,7.87,1.16,11.61,0,5.67-1.73,11.37-3.87,17.15-5.21a88,88,0,0,1,14.59-2.25c4.36-.22,8.73-.33,13.06-.89,4.05-.53,7.57-.7,9.37-4.65C265.24,199.82,265.34,199.56,265.44,199.3Z" transform="translate(-142.65 -11.55)"/><path class="cls-25" d="M264.41,129.33a39.53,39.53,0,0,1,.51,8.9l-1.92-.08a33.41,33.41,0,0,0-2.79-5.62l1.08-1.37a18,18,0,0,1,2.93-2.79C264.29,128.69,264.36,129,264.41,129.33Z" transform="translate(-142.65 -11.55)"/><path class="cls-25" d="M229.84,176c-2.89,1.68-5.86,3.24-8.85,4.78h0a13.68,13.68,0,0,1-2.12.29c-5.69.26-10.55-3.85-14.24-8.09-1.65-1.91-3.22-3.91-4.68-6h0c-1-13.41-5.44-26.75-6.88-40.07A124.13,124.13,0,0,0,198,141.65c2.64,6.9,5.28,13.8,8.56,20.42,2.56,5.16,6.23,10.84,12.84,10.76,3,0,5.07-.49,7.27-2.37a79.28,79.28,0,0,0,6.8-6.67c4.12-4.53,7.83-9.39,11.67-14.14L246.5,148c3.31-4,6.85-7.79,10.32-11.65.7-.78,1.51-1.36,2.16-2.21l1.23-1.61a33.41,33.41,0,0,1,2.79,5.62l1.92.08c-.05,1.33-.15,2.65-.28,4h0c0,.09,0,.19,0,.29-8.56,7.24-14.42,17.48-22.85,25.05A70.75,70.75,0,0,1,229.84,176Z" transform="translate(-142.65 -11.55)"/><path class="cls-27" d="M231.17,139a59.65,59.65,0,0,0-9.43,11.32c-1.55-9.82-4.37-19.27-7.25-28.78a31.51,31.51,0,0,1,6.46,6.69c1.88,2.67,3.37,5.65,5.81,7.85a10,10,0,0,0,5,2.41C231.54,138.65,231.35,138.82,231.17,139Zm-38.1-12A124.13,124.13,0,0,0,198,141.65c2.64,6.9,5.28,13.8,8.56,20.42,2.56,5.16,6.23,10.84,12.84,10.76,3,0,5.07-.49,7.27-2.37a79.28,79.28,0,0,0,6.8-6.67c4.12-4.53,7.83-9.39,11.67-14.14L246.5,148c3.31-4,6.85-7.79,10.32-11.65.7-.78,1.51-1.36,2.16-2.21l1.23-1.61a20.13,20.13,0,0,0-7.79-7.51,8.17,8.17,0,0,0,1.5-2.26c.83-2,1.92-3.86,2.76-5.79s1.24-3.9,2.68-5.7a4.14,4.14,0,0,1,1.43-1.2,1.77,1.77,0,0,1,1.57.07c.36-.79.7-1.59,1-2.41-7.37-6.32-16.14-11.21-25.71-12.91-.05.73-.08,1.46-.11,2.2q-.28,6.9,0,13.81c.09,1.79.2,3.57.35,5.36a27,27,0,0,1-16.7-5.49,22.53,22.53,0,0,1-8.23-13l-2.55.54c-6.45,1.51-12.56,5.07-16.18,10.48-3.37,5-2.9,10.17-1.77,15.84q.25,1.23.54,2.43Z" transform="translate(-142.65 -11.55)"/><path class="cls-14" d="M243.53,228.12c.06-.9.11-1.8.17-2.7-.68.88-1.27,1.8-1.91,2.7H200.4c-.06-1.35-.13-2.73-.22-4.12,9.13-3.77,22.47-9,26.56-9.33,6.52-.57,13.13.19,19.61-.71a38.26,38.26,0,0,0,19-8.35c-.11,7.71-.52,15.16-1.05,22.51Z" transform="translate(-142.65 -11.55)"/><path class="cls-14" d="M224.32,60.26a15.08,15.08,0,0,0-2.88,5c-.21.62-.39,1.26-.56,1.92-.91-5.45-.63-11.18,1.9-16.2a18.18,18.18,0,0,1,2.82-4.13,17.75,17.75,0,0,1,7.84-5.05c2.21-.7,3.72-1.36,6.13-1.16a25.15,25.15,0,0,1,8.09,2.13c6.48,2.85,11,8.41,10.83,15.63a16.61,16.61,0,0,1-4.68,10.88A55.37,55.37,0,0,0,256.28,59a6.24,6.24,0,0,0-.89-1.28,12.82,12.82,0,0,0-5.07-3.11,15.78,15.78,0,0,0-6-1.22,7.79,7.79,0,0,0-5.52,2.27c-1.28,1.41-1.78,3.32-2.47,5.08a23.4,23.4,0,0,1-2.7,4.93,1.48,1.48,0,0,1-.79.67c-.59.14-1.12-.44-1.23-1a6.75,6.75,0,0,1,.15-1.73,4.07,4.07,0,0,0-2.31-3.94c-1.38-.66-3.93-.47-5,.69Z" transform="translate(-142.65 -11.55)"/><path class="cls-29" d="M224.92,69A32.55,32.55,0,0,1,224,65.7c-.26-1.47-.73-4.12.45-5.35s3.66-1.35,5-.69a4.07,4.07,0,0,1,2.31,3.94,6.75,6.75,0,0,0-.15,1.73c.11.57.64,1.15,1.23,1a1.48,1.48,0,0,0,.79-.67,23.4,23.4,0,0,0,2.7-4.93c.69-1.76,1.19-3.67,2.47-5.08a7.79,7.79,0,0,1,5.52-2.27,15.78,15.78,0,0,1,6,1.22,12.82,12.82,0,0,1,5.07,3.11,6.24,6.24,0,0,1,.89,1.28,55.37,55.37,0,0,1-2.47,10.28A56,56,0,0,1,247,82.73,19.2,19.2,0,0,1,242.19,88a9.83,9.83,0,0,1-4.13,1.6,7.18,7.18,0,0,1-2.77-.17c-2.48-.66-4.31-2.68-5.69-4.79a26.4,26.4,0,0,1-4.29-13.32,9.11,9.11,0,0,0-.39-2.25Z" transform="translate(-142.65 -11.55)"/><path class="cls-25" d="M238,116.19a27,27,0,0,1-16.7-5.49,22.53,22.53,0,0,1-8.23-13,18.46,18.46,0,0,0,4.34-1.38,6.72,6.72,0,0,0,1.27-.81,19.43,19.43,0,0,0,6.44,10.67,20.4,20.4,0,0,0,12.53,4.69C237.7,112.62,237.81,114.4,238,116.19Z" transform="translate(-142.65 -11.55)"/><path class="cls-31" d="M237.68,94.82c-.05.73-.08,1.46-.11,2.2-6.66-3.51-12.06-13-13.84-19.33v0c.51-3.12,1-6.26,1.19-8.64a9.11,9.11,0,0,1,.39,2.25A26.4,26.4,0,0,0,229.6,84.6c1.38,2.11,3.21,4.13,5.69,4.79a7.18,7.18,0,0,0,2.77.17C237.9,91.31,237.77,93.06,237.68,94.82Z" transform="translate(-142.65 -11.55)"/><path class="cls-29" d="M237.57,97q-.28,6.9,0,13.81a20.4,20.4,0,0,1-12.53-4.69,19.43,19.43,0,0,1-6.44-10.67c2.49-2,3.12-5.14,3.53-8.2.3-2.25,1-5.89,1.56-9.58C225.51,84.07,230.91,93.51,237.57,97Z" transform="translate(-142.65 -11.55)"/><path class="cls-25" d="M231.72,138.49c-.18.16-.37.33-.55.51a59.65,59.65,0,0,0-9.43,11.32c-1.55-9.82-4.37-19.27-7.25-28.78a31.51,31.51,0,0,1,6.46,6.69c1.88,2.67,3.37,5.65,5.81,7.85A10,10,0,0,0,231.72,138.49Z" transform="translate(-142.65 -11.55)"/><path class="cls-14" d="M224.92,69h0c-.19,2.38-.68,5.52-1.19,8.64v0c0-.11-.06-.21-.09-.31-.82-3.12-2-6.16-2.6-9.33,0-.29-.11-.58-.16-.87.17-.66.35-1.3.56-1.92a15.08,15.08,0,0,1,2.88-5l.11.09c-1.18,1.23-.71,3.88-.45,5.35A32.55,32.55,0,0,0,224.92,69Z" transform="translate(-142.65 -11.55)"/><path class="cls-30" d="M225.6,46.85A18.18,18.18,0,0,0,222.78,51c-2.53,5-2.81,10.75-1.9,16.2-.81,3.14-1.45,6.5-4.28,8-2.61,1.35-5.89.31-8.73,1.09-3,.84-5.06,3.61-6.18,6.46s-1.56,5.91-2.7,8.75-3.27,5.58-6.31,6.32c-2.48.61-5.1-.22-7.4-1.3s-4.51-2.44-7-3-5.44-.12-7,1.85a15.25,15.25,0,0,0-1.62,3.29c-2.27,5-8.25,8-13.81,7.24a15.54,15.54,0,0,1-12.24-10,17.73,17.73,0,0,1,2.17-15.65A23.33,23.33,0,0,1,159.21,71a32.06,32.06,0,0,1,16.61.34c2.71.75,5.35,1.8,8.15,2.06s5.9-.43,7.64-2.57c1.94-2.38,1.69-5.73,2.17-8.73,1.14-6.93,6.8-12.69,13.57-15.09A30.15,30.15,0,0,1,225.6,46.85Z" transform="translate(-142.65 -11.55)"/><path class="cls-32" d="M240.59,67.1a1.19,1.19,0,0,1-1.59-.18,1,1,0,0,1,.17-1.45,1.21,1.21,0,0,1,1.59.18A1,1,0,0,1,240.59,67.1Z" transform="translate(-142.65 -11.55)"/><path class="cls-32" d="M252.38,70.19a1.17,1.17,0,0,1-1.5.5,1,1,0,0,1-.57-1.38,1.15,1.15,0,0,1,1.49-.5A1,1,0,0,1,252.38,70.19Z" transform="translate(-142.65 -11.55)"/></svg>